<svg width="71" height="71" viewBox="0 0 71 71" fill="none" xmlns="http://www.w3.org/2000/svg">
<g clip-path="url(#clip0_12_1133)">
<path fill-rule="evenodd" clip-rule="evenodd" d="M63.7293 28.0744C63.3507 27.9567 63.0127 28.1816 62.7895 27.8793C62.5563 27.5632 62.3608 27.241 62.3666 26.8115C62.3852 25.4578 62.3898 24.1038 62.3616 22.7506C62.3554 22.4342 62.4747 22.1997 62.5973 21.9404C62.9295 21.2384 63.284 20.55 63.7898 19.9535C64.0259 19.6748 64.2988 19.4449 64.6505 19.309C64.8377 19.237 64.9984 19.471 65.2411 19.2486C65.435 19.0713 65.6698 19.572 65.9606 19.5522C66.1379 19.9991 65.7701 20.2054 65.5298 20.4833C65.8372 20.6241 66.1598 20.6129 66.4481 20.7852C66.7306 20.9542 66.9522 21.1079 66.8855 21.448C66.8035 21.8684 67.1452 22.0245 67.3374 22.2755C67.2533 22.3878 67.0591 22.4607 67.1224 22.6334C67.6365 24.0404 67.262 25.0043 66.8118 26.1574C66.6871 26.478 66.5028 26.8587 66.4846 27.1337C66.4402 27.8105 65.9801 28.298 65.8695 28.9276C65.7879 29.3932 65.4847 29.6761 64.9508 29.6483C64.8505 29.6429 64.7656 29.8741 64.4993 29.8206C64.4268 29.7432 64.1957 29.6081 64.2011 29.4822C64.2176 29.0655 64.1621 28.7391 63.7372 28.5436C63.6812 28.518 63.7293 28.2665 63.7293 28.0744Z" fill="#C0D8FE"/>
<path fill-rule="evenodd" clip-rule="evenodd" d="M41.264 61.9058C41.7271 62.023 42.3062 61.6726 42.6818 62.2206C42.5253 62.5329 42.372 62.8385 42.227 63.1277C42.4267 63.3319 42.5497 63.237 42.7373 63.1641C43.432 62.892 43.5956 62.9814 43.8404 63.6752C43.876 63.7759 43.8586 63.9258 43.9712 63.9486C44.7632 64.1056 44.5818 64.9 44.9111 65.3573C44.5718 65.7583 45.1401 66.1604 44.9537 66.4843C44.7433 66.8505 44.8108 67.3608 44.378 67.6043C44.25 67.6764 44.315 67.8052 44.2981 67.91C44.1498 68.8233 43.7575 69.5457 42.8111 69.8568C42.686 69.8982 42.6284 70.1007 42.3621 70.022C42.2424 69.7768 42.0941 69.4732 41.9454 69.1692C41.7081 69.0938 41.2872 69.3096 41.3506 68.7413H40.0579C39.9771 68.1262 40.0657 67.4755 39.5716 67.0125C39.5327 66.976 39.5289 66.8538 39.5592 66.7991C39.852 66.2714 39.6598 65.6472 39.8806 65.1262C39.9924 64.8623 40.0724 64.6689 39.9129 64.4266C39.5281 63.8417 39.9166 63.3894 40.219 62.974C40.5027 62.5834 40.897 62.2727 41.264 61.9058Z" fill="#C0D8FE"/>
<path fill-rule="evenodd" clip-rule="evenodd" d="M52.3773 32.9307C52.2149 33.2956 51.8757 33.202 51.5207 33.2828C51.5936 33.755 51.3575 34.2636 51.7361 34.7151C51.3812 34.7275 51.3812 34.7275 51.1935 34.5871C50.9396 34.735 50.8551 35.0071 50.6691 35.2742C50.7271 34.4529 50.3933 33.861 49.8076 33.4704C49.5417 33.4182 49.5019 33.6174 49.371 33.668C48.927 32.8491 48.9158 32.4403 49.2687 30.2906C49.4522 29.1764 50.0275 28.2581 50.8415 27.3319C51.0867 27.2785 51.488 27.9868 51.8596 27.3108C52.2195 27.9499 51.5576 28.3024 51.5216 28.9179C51.8807 28.756 52.229 28.6259 52.5927 28.7543C52.7836 28.9192 52.5359 29.1896 52.7447 29.3669C53.0744 29.6469 53.3677 29.9522 52.9154 30.373C53.4041 30.735 52.7948 31.0511 52.869 31.4168C52.9402 31.7697 52.8843 32.1487 52.8843 32.5277C52.5281 32.4573 52.4622 32.0373 52.0787 32.1044C51.7494 32.536 52.3293 32.606 52.3773 32.9307Z" fill="#C0D8FE"/>
<path fill-rule="evenodd" clip-rule="evenodd" d="M10.9361 56.438C10.7928 56.1671 10.4259 56.327 10.1881 56.2243V55.7194C10.1608 55.6887 10.1268 55.6332 10.1127 55.6378C9.49057 55.8457 9.16625 55.1942 8.62199 55.1267C8.10134 55.062 7.80311 54.6698 7.7008 54.1508C7.66021 53.942 7.75175 53.79 7.93731 53.6902C7.04554 52.943 7.60388 52.1999 7.89258 51.4419C8.26288 50.4706 9.02501 50.3555 9.88613 50.4027C10.0589 50.8873 9.96193 51.2891 9.6343 51.5906C10.3119 52.033 10.5132 51.3728 10.9424 51.2497C11.0819 51.5161 11.2066 51.7538 11.3172 51.9642C11.3114 52.2136 10.9469 52.3014 11.1234 52.5802C11.4278 52.9434 11.533 52.3577 11.8499 52.4534C12.2761 52.837 12.226 53.4222 12.2152 53.9512C12.3904 53.9967 12.4923 54.0236 12.6501 54.0647C12.593 54.3463 12.1995 54.4275 12.2111 54.7299C12.2098 55.0583 12.5586 54.809 12.6592 55.0521C12.1228 55.4945 11.7579 56.158 10.9361 56.438Z" fill="#C0D8FE"/>
<path fill-rule="evenodd" clip-rule="evenodd" d="M37.1675 40.6909H38.0933C38.283 40.8806 38.2337 41.3892 37.9794 41.9231C38.5137 42.3597 38.7216 41.7256 39.0149 41.5897C39.3599 41.5735 39.3798 41.8726 39.5322 41.909C39.6295 42.2379 39.234 42.3075 39.3616 42.6476C39.5985 42.7876 40.1092 42.6559 40.2119 43.0601C40.2852 43.3492 40.3552 43.7278 39.9911 43.9854C40.1402 44.0376 40.2707 44.0832 40.4016 44.1287C40.3722 44.4493 39.9406 44.6896 40.1978 45.1054C39.712 45.7532 38.8881 46.0146 38.2556 46.5307C38.1409 46.6243 37.899 46.9495 37.5788 46.7341C37.4496 46.5605 37.7478 46.5609 37.7209 46.4048C37.4036 46.2051 37.0064 46.4462 36.6647 46.2698C36.5587 46.0183 36.7247 45.6497 36.3213 45.4948C35.8433 45.7243 35.3616 45.8162 34.9408 45.1568C35.4917 44.796 36.2331 44.673 36.3561 43.8475C35.8972 43.8343 35.613 44.2414 35.176 44.3035C35.0853 44.2215 34.9776 44.1246 34.8314 43.9929C34.8 43.9701 34.8563 43.9411 34.8985 43.8603C35.1541 43.3745 35.9502 43.4403 36.0065 42.7635C36.5106 42.5643 36.4721 42.0027 36.5636 41.6514C36.6692 41.2451 36.883 41.0156 37.1675 40.6909Z" fill="#C0D8FE"/>
<path fill-rule="evenodd" clip-rule="evenodd" d="M18.0442 66.4868C18.1734 66.1865 18.4336 66.119 18.2219 65.7706C18.0802 65.6207 17.7468 65.8646 17.4531 65.7031C17.437 65.6252 17.4163 65.5225 17.3885 65.3846C17.3554 65.3303 17.2912 65.3042 17.2514 65.363C17.1284 65.5465 16.9486 65.5416 16.7594 65.5378C16.2064 65.5275 16.0879 65.368 16.0424 64.8039C16.0225 64.5553 16.2234 64.4443 16.2433 64.2037C16.0589 64.1904 15.8813 64.1776 15.6385 64.1602C15.4596 63.3243 15.9475 62.5883 16.1045 61.8171C16.1844 61.4256 16.7879 61.2359 17.2734 61.2401C17.4502 61.3204 17.3947 61.4927 17.42 61.5611C17.5016 61.7201 17.5302 61.6903 17.6126 61.6199C17.8632 61.4053 18.1647 61.3523 18.366 61.6477C18.5727 61.9508 18.8664 61.9049 19.1414 61.9533C19.2984 62.1149 19.1812 62.3124 19.2226 62.4864C19.3605 62.6782 19.5664 62.5601 19.7727 62.6227C20.1972 62.9081 19.9943 63.5323 20.3509 63.8901C19.163 65.7723 18.8784 66.1053 18.0442 66.4868Z" fill="#C0D8FE"/>
<path fill-rule="evenodd" clip-rule="evenodd" d="M31.0554 18.0872C30.944 17.4866 30.5422 17.2833 29.9362 17.4402C29.3949 16.4134 29.5879 15.344 29.7101 14.3064C29.7357 14.086 29.8641 13.8168 29.8269 13.5828C29.7536 13.1218 30.0323 12.7511 30.106 12.3302C30.1632 12.0043 30.6561 11.9314 30.9626 11.7611C31.3739 12.1244 31.3739 12.1244 31.4866 12.6492C31.6199 12.6579 31.7633 12.667 31.6614 12.6604C32.2379 12.6807 31.9977 13.0642 32.2421 13.1731C32.3812 13.2353 32.5991 13.3753 32.544 13.5952C32.4541 13.9547 32.9856 14.202 32.7594 14.5056C32.5299 14.8134 32.6646 15.1683 32.5312 15.4293C32.1895 16.0986 32.0818 16.828 31.89 17.5314C31.7645 17.992 31.5259 18.1204 31.0554 18.0872Z" fill="#C0D8FE"/>
<path fill-rule="evenodd" clip-rule="evenodd" d="M54.8973 50.9409C54.732 50.7985 54.6185 50.6332 54.3489 50.6112C53.6634 50.5553 53.6654 50.5288 53.5018 49.7721C52.9998 49.6043 52.5289 49.7688 52.108 49.9647C51.8943 49.7489 52.0422 49.5501 51.9539 49.3624C52.1101 49.3086 52.241 49.2634 52.4034 49.2075V47.9115C52.1784 47.9831 51.968 48.0502 51.6516 48.1505C51.5302 48.16 51.4967 47.902 51.3223 47.8485C51.5737 47.1941 52.0977 46.7911 52.5533 46.3317C53.1092 46.4539 53.7118 45.833 54.2113 46.4866C54.1906 46.5256 54.1583 47.2724 54.2031 47.424C54.0937 47.4368 53.9893 47.4513 53.8845 47.4612C53.8112 47.4683 53.7375 47.4695 53.6638 47.4737C53.4811 47.6418 53.6232 47.943 53.3697 48.1099C53.9376 47.9115 54.4313 47.6692 54.8024 47.2289C54.9594 47.4144 55.1143 47.566 55.4026 47.4894C54.908 47.8899 55.5716 48.3957 54.9863 48.7656C55.4295 48.7842 55.4755 48.4943 55.6515 48.433C55.8164 48.3758 56.0011 48.3758 56.1647 48.3526C56.366 48.7689 56.6439 49.1301 56.4236 49.6694C56.137 49.9183 55.4531 49.8624 55.3413 50.5702C55.8528 50.4708 56.19 50.1821 56.4422 49.9286C56.762 49.9875 56.7326 50.1436 56.7222 50.2902C56.1506 50.2496 56.2057 50.9617 55.7236 51.1017C55.3367 51.2139 55.0136 51.5473 54.5299 51.8721C54.5783 51.4367 54.7432 51.1895 54.8973 50.9409Z" fill="#C0D8FE"/>
<path fill-rule="evenodd" clip-rule="evenodd" d="M44.5246 17.0744C44.3921 17.2073 44.2591 17.3399 44.1258 17.4732C44.518 17.7301 43.7248 18.1848 44.2836 18.4143C43.4175 19.4399 43.4063 19.466 43.3595 20.5367H42.3074C42.2208 20.4932 42.3024 20.3097 42.2217 20.1933C41.1684 20.0707 40.9439 19.8259 40.9095 18.7693C40.9004 18.486 40.9936 18.1737 40.6953 17.967C40.9149 17.6617 40.7919 17.2699 41.0213 16.9331C41.462 16.2874 42.0171 15.7605 42.5468 15.2084C42.7651 15.1019 42.9643 15.1682 43.1466 15.1885C43.2452 15.6081 42.674 15.8686 43.0724 16.3172C43.2013 16.13 43.3226 15.9527 43.4494 15.768C43.8466 16.2468 44.5205 16.3847 44.5246 17.0744Z" fill="#C0D8FE"/>
<path fill-rule="evenodd" clip-rule="evenodd" d="M61.471 1.485C61.3148 1.75009 60.9541 1.43944 60.7942 1.73932C61.1127 1.905 61.4519 1.78654 61.8206 1.83417C61.9569 2.3047 62.2306 2.73672 62.4112 3.23003C62.7931 4.27506 62.5425 5.17595 62.1565 6.11577C62.0032 6.48979 61.7754 6.63145 61.3368 6.53991C61.2291 6.30879 61.0999 6.03127 60.9516 5.71316C60.7014 5.62038 60.3092 5.72186 60.1149 5.27121C60.1385 4.52109 60.1708 3.68606 59.627 2.97612C59.7906 2.67748 59.9389 2.40784 60.0954 2.12287C59.9703 2.07772 59.8403 2.0305 59.6435 1.95926C59.7496 1.59518 59.8784 1.24766 60.2031 0.948608H61.1591C61.2917 1.10435 61.5257 1.21038 61.471 1.485Z" fill="#C0D8FE"/>
<path fill-rule="evenodd" clip-rule="evenodd" d="M28.7697 29.2114C28.6135 29.4607 28.3716 29.3725 28.177 29.3862C27.6373 28.9024 27.984 28.1349 27.5801 27.6113C28.2503 26.3008 28.2503 26.3008 29.3931 25.7727C29.6234 25.8298 29.7559 25.9889 29.8396 26.1993C29.9038 26.4474 29.473 26.5029 29.6176 26.7883C29.8321 27.0356 29.9924 26.8769 30.1506 26.7042C30.8005 26.9594 30.6398 27.8002 31.2056 28.1436C31.1418 28.6083 31.2831 29.0908 31.1323 29.563L30.1933 30.7286C30.0454 30.7348 29.8976 30.7414 29.7522 30.7481C29.6213 30.5207 29.3483 29.7904 29.3889 29.7117C29.1959 29.5556 28.9954 29.3936 28.7697 29.2114Z" fill="#C0D8FE"/>
<path fill-rule="evenodd" clip-rule="evenodd" d="M16.415 29.617C16.1896 29.7118 16.4025 30.0266 16.2278 30.0415C15.9018 30.1124 15.7775 29.938 15.6868 29.7951C15.4967 29.4952 15.7378 29.0889 15.5791 28.8325C15.3786 28.5078 15.3016 28.299 15.5423 27.961C15.7423 27.6806 15.6313 27.2991 15.7982 26.9429C16.1975 26.0888 16.1752 26.0205 17.1038 26.0279C17.1303 26.0544 17.1783 26.0797 17.18 26.1079C17.187 26.257 17.1833 26.4069 17.1833 26.5867C17.4853 26.7607 17.9475 26.6298 18.1153 27.1475C18.2416 27.5373 18.6471 27.8115 18.5547 28.3214C18.4847 28.7103 18.5812 29.0963 18.2047 29.4331C18.0171 29.6012 17.8332 29.9256 17.8477 30.2905C17.8576 30.5539 17.6356 30.7159 17.3324 30.7515C17.052 30.7842 16.8979 30.6177 16.7878 30.4412C16.6295 30.1865 16.5351 29.8916 16.415 29.617Z" fill="#C0D8FE"/>
<path fill-rule="evenodd" clip-rule="evenodd" d="M23.6044 37.5211C23.9254 37.5211 24.2245 37.5211 24.5243 37.5211C24.7633 37.6735 24.5587 37.9423 24.6826 38.1254C24.8404 38.2741 25.0379 38.1577 25.2177 38.2041C25.4766 38.7281 25.81 39.2338 25.979 39.7901C26.1625 40.3915 25.8887 40.9867 25.6887 41.5525C25.231 41.741 25.0185 41.3893 24.76 41.1379C24.4605 41.1375 24.1623 41.1375 23.8562 41.1375C23.7026 40.7059 23.4884 40.348 22.9388 40.4636C22.6816 40.1608 23.0332 39.6857 22.6211 39.4525C22.8249 39.1692 23.0166 38.8871 23.0672 38.5226C23.1169 38.1668 23.302 37.864 23.6044 37.5211Z" fill="#C0D8FE"/>
<path fill-rule="evenodd" clip-rule="evenodd" d="M0.0428385 41.0092C0.453312 40.4575 1.05515 40.2794 1.70627 40.2231C2.14698 40.7603 1.39603 40.8655 1.33597 41.2118C1.81893 41.6691 2.21698 40.902 2.67384 41.1919C2.94266 41.4392 2.57899 41.5415 2.52142 41.7192C2.68296 41.9333 2.95674 41.7113 3.11911 41.8472C3.30426 42.3152 2.99444 42.8367 3.38461 43.2861C3.0168 43.6187 3.08763 44.2607 2.55787 44.525C2.06663 44.4376 1.76509 44.0702 1.3981 43.7827C1.07337 43.5288 0.548992 43.5785 0.278105 42.9527C0.44917 42.3968 -0.16302 41.7623 0.0428385 41.0092Z" fill="#C0D8FE"/>
<path fill-rule="evenodd" clip-rule="evenodd" d="M68.0794 39.1494C67.6991 38.9253 67.3239 38.8628 67.077 38.4374C67.2365 38.3409 67.42 38.2299 67.6035 38.1189C67.0936 37.9615 66.6781 38.4399 66.2287 38.1002C66.4756 37.6657 67.0095 37.6707 67.3409 37.3774C67.3765 37.1152 67.2195 37.1152 67.0203 37.0519C66.6926 36.9479 66.6293 37.4603 66.3153 37.2855C66.1939 37.1745 66.1393 36.9893 66.2739 36.9119C67.0008 36.4927 67.5956 35.9087 68.2339 35.3806C68.6129 35.0674 68.7367 34.9825 69.3357 34.8723C69.2901 35.1039 69.0677 35.188 68.9393 35.3636C69.24 35.6916 69.4918 35.4133 69.7594 35.2969C69.7983 35.7612 70.174 36.1477 69.9922 36.7839C69.286 37.3679 68.9049 38.398 68.0794 39.1494Z" fill="#C0D8FE"/>
</g>
<defs>
<clipPath id="clip0_12_1133">
<rect width="71" height="71" fill="white"/>
</clipPath>
</defs>
</svg>
