<svg width="35" height="30" viewBox="0 0 35 30" fill="none" xmlns="http://www.w3.org/2000/svg">
<g clip-path="url(#clip0_12_752)">
<path d="M22.3828 27.6777C23.5254 28.9961 25.3711 29.6992 27.4804 29.6992C31.6113 29.6992 34.248 26.9746 34.248 22.7559C34.248 18.625 31.5234 15.6367 27.6562 15.6367C26.8652 15.6367 25.9863 15.8125 25.1074 16.0762C24.5801 9.48438 27.832 4.03516 32.2265 2.36523L31.7871 0.871094C24.2285 3.77148 19.4824 11.1543 19.4824 19.8555C19.4824 22.668 20.5371 25.7441 22.3828 27.6777ZM0.498047 19.8555C0.498047 24.6895 3.22265 29.6992 8.49609 29.6992C12.539 29.6992 15.1758 26.9746 15.1758 22.7559C15.1758 18.625 12.4511 15.6367 8.67187 15.6367C7.88086 15.6367 7.00195 15.8125 6.12304 16.0762C5.5957 9.48438 8.84765 4.03516 13.2422 2.36523L12.7148 0.871094C5.24414 3.77148 0.498047 11.1543 0.498047 19.8555Z" fill="#E4007F"/>
</g>
<defs>
<clipPath id="clip0_12_752">
<rect width="35" height="30" fill="white"/>
</clipPath>
</defs>
</svg>
