<svg width="92" height="16" viewBox="0 0 92 16" fill="none" xmlns="http://www.w3.org/2000/svg">
<path d="M90.481 1.76018L89.729 0.338379H89.327V2.65838H89.729V1.09038L90.38 2.25398H90.633L91.236 1.09038V2.65838H91.636V0.338379H91.235L90.481 1.76018ZM88.385 0.651077V2.65838H88.727V0.651077H89.327V0.338379H87.786V0.650379L88.385 0.651077ZM72.384 5.36388C73.748 5.36388 74.971 6.13188 75.465 7.29768H69.305C69.798 6.13188 71.021 5.36388 72.384 5.36388ZM65.519 7.97768C65.068 11.0024 67.017 13.8853 70.108 14.7653C73.199 15.6453 76.505 14.2584 77.892 11.4999H73.829C73.257 11.8641 72.593 12.0599 71.915 12.0649C70.484 12.0795 69.196 11.246 68.693 9.97838H78.453C78.507 9.61688 78.537 9.25258 78.545 8.88748C78.527 5.43658 75.561 2.65038 71.915 2.65838C68.688 2.69398 65.971 4.95368 65.519 7.97768ZM23.5505 11.7639C22.9139 12.3782 22.0607 12.7169 21.176 12.7064C19.3185 12.7275 17.7927 11.2693 17.7651 9.44458V3.43078H14.6305V9.44388C14.6698 12.966 17.5891 15.8009 21.176 15.8009C24.7636 15.8009 27.6829 12.966 27.7215 9.44458V3.42998H24.5876V9.44308H24.5411C24.5395 9.87638 24.4511 10.305 24.2809 10.7035C24.1108 11.102 23.8624 11.4631 23.5505 11.7639ZM3.2029 3.76528V0.338379H0V15.0279H3.1564V9.08888C3.1964 7.31658 4.7018 5.89908 6.5455 5.89908C8.3891 5.89908 9.8945 7.31658 9.9345 9.08888V15.0279H13.0909V9.08888C13.1084 7.42708 12.4291 5.82788 11.2073 4.65258C9.984 3.47728 8.3207 2.82488 6.592 2.84308C5.4005 2.84418 4.2307 3.16248 3.2029 3.76528ZM79.316 15.0279H82.291V8.97548C82.292 8.11278 82.63 7.28468 83.233 6.66708C83.525 6.36718 83.875 6.12938 84.262 5.96818C84.649 5.80698 85.064 5.72558 85.483 5.72888V2.65838C82.091 2.64888 79.332 5.47508 79.316 8.97618V15.0279ZM60.704 0.338379H57.754V9.36088C57.791 12.9391 60.542 15.8148 63.914 15.8009V12.7166C62.159 12.7188 60.728 11.2235 60.704 9.36088V0.338379ZM46.2036 9.20168C46.2225 7.28308 47.7789 5.74058 49.6858 5.75078C51.592 5.76018 53.1331 7.31798 53.1331 9.23588C53.14 9.69938 53.0534 10.1596 52.8785 10.589C52.7035 11.0184 52.4438 11.408 52.1149 11.7348C51.7871 12.0602 51.3965 12.3155 50.9669 12.4853C50.5373 12.6551 50.0777 12.7358 49.616 12.7224C47.7091 12.6933 46.184 11.1195 46.2036 9.20168ZM46.2545 3.87288V0.338379H43.1229V9.36388C43.1782 12.9348 46.0924 15.8009 49.6684 15.8009C53.2444 15.8009 56.159 12.9355 56.214 9.36388C56.137 5.78198 53.2065 2.91878 49.6196 2.92168C48.4319 2.92418 47.2678 3.25328 46.2545 3.87288ZM35.7644 12.7224C33.8567 12.6933 32.3302 11.1195 32.3491 9.20168C32.3687 7.28308 33.9258 5.74058 35.8349 5.75078C37.7433 5.76018 39.2851 7.31798 39.2851 9.23588C39.2919 9.69948 39.2051 10.1598 39.0299 10.5892C38.8547 11.0186 38.5947 11.4082 38.2655 11.7348C37.9372 12.0602 37.5463 12.3156 37.1163 12.4854C36.6864 12.6552 36.2264 12.7358 35.7644 12.7224ZM32.3971 3.82788V0.338379H29.2625V9.25038C29.224 11.8737 30.7985 14.2599 33.2465 15.2868C35.6953 16.3122 38.5295 15.7755 40.4175 13.9268C41.3386 13.0302 41.968 11.8767 42.2236 10.6169C42.4792 9.35718 42.349 8.04958 41.8502 6.86488C40.8284 4.44238 38.4218 2.87078 35.7615 2.88888C34.5755 2.89148 33.4125 3.21648 32.3971 3.82928V3.82788Z" fill="#484E61"/>
</svg>
