<svg width="98" height="17" viewBox="0 0 98 17" fill="none" xmlns="http://www.w3.org/2000/svg">
<mask id="mask0_12_1034" style="mask-type:luminance" maskUnits="userSpaceOnUse" x="0" y="0" width="98" height="17">
<path d="M98 0.338379H0V16.3384H98V0.338379Z" fill="white"/>
</mask>
<g mask="url(#mask0_12_1034)">
<path fill-rule="evenodd" clip-rule="evenodd" d="M20.0034 0.350973L0.129011 8.27077C0.0891113 8.28737 0.0558114 8.31677 0.0343114 8.35427C0.0117114 8.38817 -0.000190317 8.42807 9.6832e-06 8.46877C-0.000390317 8.50957 0.0116114 8.54957 0.0343114 8.58337C0.0572114 8.61777 0.0903113 8.64418 0.129011 8.65858L6.02981 10.7908C6.06141 10.8035 6.09581 10.8074 6.12941 10.8022C6.16241 10.797 6.19371 10.7841 6.22091 10.7646L17.4148 2.59277C17.4176 2.59157 17.4207 2.59087 17.4238 2.59087C17.4269 2.59087 17.4299 2.59157 17.4328 2.59277C17.439 2.59437 17.4447 2.59777 17.4491 2.60257C17.4502 2.60517 17.4507 2.60797 17.4507 2.61077C17.4507 2.61357 17.4502 2.61637 17.4491 2.61897C17.4514 2.62467 17.4514 2.63117 17.4491 2.63697L7.54051 11.2719C7.51761 11.2918 7.49931 11.3163 7.48661 11.3439C7.47471 11.3717 7.46911 11.4019 7.47031 11.4322V16.0303C7.46911 16.0719 7.48171 16.1128 7.50621 16.1465C7.53071 16.1807 7.56481 16.2069 7.60421 16.2217C7.64361 16.2358 7.68641 16.237 7.72661 16.2252C7.76681 16.2135 7.80221 16.1894 7.82791 16.1563L10.6877 12.6251C10.7143 12.5928 10.7502 12.5694 10.7905 12.558C10.8309 12.5449 10.8743 12.5449 10.9147 12.558L14.56 13.8818C14.6081 13.9014 14.6621 13.9014 14.7102 13.8818C14.7575 13.86 14.7953 13.8216 14.8164 13.7738L20.268 0.616071C20.2826 0.579771 20.286 0.539873 20.2778 0.501573C20.2709 0.462373 20.2521 0.426373 20.2239 0.398473C20.1966 0.369573 20.1613 0.349673 20.1226 0.341173C20.0838 0.332773 20.0435 0.336173 20.0067 0.350973" fill="#484E61"/>
<path d="M26.2848 1.94678H24.4883L24.5144 12.9102H26.3109L26.2848 1.94678Z" fill="#484E61"/>
<path d="M31.9402 5.02148C31.0322 5.02148 30.2009 5.34868 29.6799 6.00328V5.18509H27.9863L28.0058 12.9086H29.6995L29.6864 7.79498C29.8444 7.42598 30.1085 7.11248 30.445 6.89448C30.7816 6.67648 31.1753 6.56388 31.576 6.57108C32.6539 6.57108 33.2713 7.33849 33.2745 8.55919L33.2843 12.9086H34.978L34.9665 8.28918C34.9665 6.29288 33.7874 5.02798 31.9402 5.03288" fill="#484E61"/>
<path d="M41.9753 5.15246L39.6301 10.5654L37.2766 5.16546H35.3984L38.8968 12.8808H40.3911L43.865 5.14746L41.9753 5.15246Z" fill="#484E61"/>
<path d="M48.0685 4.98378C47.0815 5.00018 46.1358 5.38338 45.415 6.05918C44.6942 6.73488 44.2498 7.65478 44.168 8.64038C44.0861 9.62598 44.3728 10.6069 44.9722 11.3927C45.5717 12.1784 46.4411 12.7129 47.4118 12.8925C48.3826 13.072 49.3852 12.8837 50.2252 12.3642C51.0651 11.8447 51.6824 11.031 51.9572 10.0811C52.2319 9.13108 52.1446 8.11278 51.7121 7.22378C51.2796 6.33478 50.5328 5.63848 49.6167 5.27018C49.125 5.07178 48.5985 4.97438 48.0685 4.98378ZM48.0832 11.4408C46.7146 11.4408 45.7559 10.3804 45.7542 9.00587C45.7526 7.63137 46.6982 6.56288 48.0717 6.55138C49.4453 6.53998 50.3844 7.61338 50.3876 8.98788C50.3909 10.3624 49.4387 11.4293 48.0881 11.4326L48.0832 11.4408Z" fill="#484E61"/>
<path d="M55.0101 5.11475H53.3164L53.3376 12.8382H55.0297L55.0101 5.11475Z" fill="#484E61"/>
<path d="M55.0101 2.13672H53.3164V3.70432H55.0101V2.13672Z" fill="#484E61"/>
<path d="M60.4098 6.52857C60.8548 6.52547 61.2908 6.65167 61.6658 6.89187C62.0398 7.13197 62.3378 7.47587 62.5208 7.88187L63.9908 7.07677C63.6468 6.42417 63.1288 5.87997 62.4948 5.50447C61.8608 5.12897 61.1348 4.93687 60.3978 4.94957C58.0952 4.95277 56.3477 6.69217 56.3477 8.98147C56.3477 11.2707 58.1197 12.9921 60.4308 12.9888C61.1668 12.9991 61.8918 12.8043 62.5238 12.4261C63.1568 12.0479 63.6718 11.5012 64.0128 10.8469L62.5328 10.0418C62.3518 10.4493 62.0558 10.7952 61.6828 11.0375C61.3088 11.2797 60.8728 11.408 60.4278 11.4065C59.0588 11.4065 58.0854 10.3462 58.0822 8.97157C58.0789 7.59707 59.0478 6.52857 60.4178 6.51717" fill="#484E61"/>
<path d="M68.9065 4.92993C66.5665 4.92993 64.8855 6.68733 64.8985 8.95863C64.8985 11.3001 66.5875 12.9708 68.9235 12.9659C70.5315 12.9659 71.7405 12.2623 72.4275 11.166L71.1405 10.2431C70.7425 10.9222 70.0155 11.4196 68.9425 11.4229C67.6655 11.4229 66.6465 10.5933 66.5665 9.32673L72.6095 9.31203C72.6235 9.06663 72.6235 8.92583 72.6235 8.75573C72.6235 6.27173 70.9205 4.93163 68.9055 4.93483L68.9065 4.92993ZM66.6365 8.08803C66.8655 6.94263 67.8615 6.36833 68.8495 6.36833C69.8375 6.36833 70.7275 6.96553 70.9155 8.07663L66.6365 8.08803Z" fill="#484E61"/>
<path d="M93.9909 4.86927H93.9308C93.4048 4.86507 92.8818 4.96587 92.3948 5.16577C91.9078 5.36567 91.4649 5.66067 91.0919 6.03357C90.7199 6.40647 90.4248 6.84987 90.2248 7.33797C90.0248 7.82597 89.9238 8.34907 89.9278 8.87657V8.89787C89.9248 9.42667 90.0269 9.95087 90.2279 10.4398C90.4289 10.9287 90.7258 11.3725 91.0998 11.7453C91.4738 12.1181 91.9188 12.4124 92.4078 12.611C92.8968 12.8096 93.4208 12.9085 93.9488 12.902H93.9779C94.5059 12.9093 95.0288 12.8109 95.5178 12.6125C96.0068 12.4141 96.4509 12.1197 96.8249 11.7468C97.1989 11.3742 97.4938 10.9308 97.6948 10.4426C97.8958 9.95427 97.9978 9.43087 97.9938 8.90277V8.87657C97.9978 8.34987 97.8959 7.82767 97.6959 7.34057C97.4959 6.85347 97.2008 6.41107 96.8278 6.03917C96.4558 5.66667 96.0138 5.37197 95.5268 5.17217C95.0408 4.97247 94.5189 4.87167 93.9929 4.87577L93.9909 4.86927ZM93.9718 11.3328C92.6018 11.3328 91.6458 10.2724 91.6428 8.89947C91.6398 7.52667 92.5918 6.45487 93.9588 6.44507C95.3258 6.43517 96.2708 7.50697 96.2748 8.88147C96.2778 10.2561 95.3258 11.3229 93.9718 11.3262V11.3328Z" fill="#484E61"/>
<path d="M86.9959 5.04124V5.75134C86.4559 5.19664 85.6539 4.89064 84.7309 4.89234C82.4999 4.89234 80.8869 6.61374 80.8699 8.78024C80.8599 9.29284 80.9529 9.80224 81.1429 10.2779C81.3339 10.7537 81.6189 11.1858 81.9809 11.5485C82.3419 11.9112 82.7729 12.1969 83.2479 12.3884C83.7229 12.58 84.2309 12.6734 84.7429 12.6632C85.6689 12.6632 86.4669 12.3359 87.0049 11.7616V12.6763C87.0049 13.879 86.3509 14.5221 85.4659 14.7184C83.2609 15.1144 81.8909 14.4484 81.8909 14.4484L81.3509 15.836C82.1379 16.3269 84.5789 16.4676 85.7129 16.2173C87.3459 15.9293 88.7049 14.8591 88.6999 12.691L88.6849 5.03954L86.9959 5.04124ZM87.0079 10.0156C86.7889 10.3615 86.4839 10.6438 86.1219 10.8342C85.7599 11.0246 85.3549 11.1164 84.9469 11.1005C83.6089 11.1005 82.6359 10.1023 82.6199 8.77534C82.6109 8.46674 82.6669 8.15974 82.7829 7.87374C82.8959 7.58704 83.0659 7.32654 83.2829 7.10794C83.4989 6.88924 83.7579 6.71704 84.0429 6.60174C84.3289 6.48644 84.6339 6.43034 84.9419 6.43704C85.3479 6.42084 85.7509 6.50994 86.1129 6.69574C86.4749 6.88144 86.7819 7.15754 87.0059 7.49734L87.0079 10.0156Z" fill="#484E61"/>
<path d="M75.7725 11.3329L78.0825 8.19109C78.5475 7.58079 79.2905 6.55479 79.4295 6.33059C80.0725 5.26539 80.1515 4.1461 79.5925 3.0285C79.1375 2.1187 78.3315 1.67529 77.3405 1.55579C75.9505 1.37909 74.5055 2.02379 73.8525 3.34269C73.7005 3.62979 73.6005 3.94179 73.5585 4.26389L75.0395 4.59119C75.0625 4.52739 75.0835 4.47499 75.0985 4.42759C75.1685 4.15799 75.2985 3.90759 75.4785 3.69489C75.6575 3.48229 75.8835 3.31269 76.1365 3.19869C76.6775 2.95159 77.4535 3.04819 77.8715 3.40979C78.5715 4.02009 78.5625 5.0461 78.0545 5.7006C77.9695 5.8119 73.5855 11.4081 73.5855 11.4081C73.5445 11.457 73.5225 11.5193 73.5235 11.5832V12.8219L80.0285 12.8056V11.3329H75.7725Z" fill="#484E61"/>
</g>
</svg>
