<svg width="180" height="81" viewBox="0 0 180 81" fill="none" xmlns="http://www.w3.org/2000/svg">
<g clip-path="url(#clip0_12_1089)">
<path d="M41.3373 38.4186C41.3373 36.4284 40.007 34.6205 37.485 34.6059C35.788 34.6059 30.697 34.5891 29 34.5891V46.1092H31.0188V42.2649H36.3595L39.4804 46.1092H41.8796V45.9624L38.6377 42.0343C40.6722 41.5896 41.3451 39.9957 41.3451 38.4186H41.3373ZM31.0266 40.3061V36.6255H37.4928C38.7606 36.6255 39.3263 37.5462 39.3263 38.4669C39.3263 39.3875 38.7762 40.3082 37.4928 40.3082L31.0266 40.3061Z" fill="#484E61"/>
<path d="M55.323 34.5933C53.6416 34.5933 48.5662 34.6101 46.8848 34.6101V46.1134H48.9017V42.7242H55.323C60.5661 42.7242 60.5505 34.5891 55.323 34.5891V34.5933ZM55.323 40.7361H48.9017V36.6591H55.323C57.8899 36.6591 57.9055 40.7361 55.323 40.7361Z" fill="#484E61"/>
<path d="M92.1987 40.1613C93.1916 39.6831 93.5895 38.8295 93.5895 37.9403C93.5895 35.6333 92.0155 34.6057 89.905 34.6057H81.4355V46.109H89.905C92.1208 46.109 93.9094 45.289 93.9094 42.7241C93.9094 42.0005 93.451 40.5702 92.1987 40.1613ZM83.4212 36.5771H89.9029C91.1883 36.5771 91.5844 37.4642 91.5844 37.9906C91.5844 38.6471 91.1727 39.2238 89.9029 39.2238H83.4232L83.4212 36.5771ZM89.9029 44.0894H83.4232V41.1302H89.905C90.7301 41.1302 91.9081 41.6713 91.9081 42.7073C91.9081 43.7916 90.7379 44.0894 89.905 44.0894" fill="#484E61"/>
<path d="M100.755 34.6057H98.7363V46.1111H109.652V44.1041H100.755V34.6057Z" fill="#484E61"/>
<path d="M116.498 34.6057H114.494V46.1111H116.498V34.6057Z" fill="#484E61"/>
<path d="M131.624 42.9317C131.335 43.2405 131.007 43.5032 130.649 43.7119C130.246 43.9418 129.818 44.1165 129.375 44.232C128.872 44.3617 128.356 44.4251 127.838 44.4208C127.159 44.4328 126.483 44.3222 125.839 44.0936C125.306 43.9007 124.813 43.5979 124.388 43.2023C124.006 42.8399 123.704 42.3918 123.502 41.8895C123.305 41.3995 123.203 40.8713 123.204 40.3375C123.202 39.7981 123.304 39.2643 123.502 38.7687C123.704 38.2665 124.006 37.8182 124.388 37.4559C124.813 37.0602 125.308 36.76 125.843 36.5729C126.488 36.3491 127.162 36.2414 127.84 36.2541C128.333 36.2517 128.826 36.3094 129.307 36.4261C129.734 36.5292 130.149 36.684 130.544 36.8875C130.899 37.0716 131.228 37.3112 131.519 37.5985C131.694 37.7751 131.853 37.9696 131.993 38.1794L133.694 37.1685C133.478 36.8332 133.23 36.5238 132.952 36.2458C132.559 35.8508 132.119 35.5137 131.644 35.2433C131.115 34.9451 130.552 34.721 129.97 34.5764C129.306 34.4135 128.626 34.334 127.945 34.3394C126.968 34.3233 125.995 34.4893 125.07 34.8301C124.293 35.1178 123.575 35.5628 122.954 36.1409C122.399 36.665 121.955 37.3103 121.651 38.0336C121.347 38.7569 121.189 39.5415 121.189 40.3354C121.189 41.1292 121.347 41.9139 121.651 42.6372C121.955 43.3605 122.399 44.0057 122.954 44.5299C123.574 45.1089 124.293 45.5539 125.07 45.8406C125.991 46.1821 126.96 46.3502 127.934 46.3376C128.636 46.3438 129.337 46.2586 130.021 46.084C130.616 45.9293 131.19 45.6917 131.727 45.3771C132.212 45.0957 132.657 44.7427 133.05 44.3285C133.335 44.0246 133.587 43.6861 133.799 43.3197L132.09 42.313C131.957 42.5406 131.801 42.7516 131.624 42.9422" fill="#484E61"/>
<path d="M72.9041 34.5933C72.6772 34.593 72.4525 34.6408 72.2429 34.7339C72.0332 34.8271 71.8427 34.9638 71.6822 35.1361C71.5216 35.3085 71.3943 35.5132 71.3074 35.7385C71.2206 35.9639 71.1759 36.2054 71.1759 36.4493H74.3962V40.4194C74.3364 40.9469 74.2279 41.4668 74.0724 41.9713C73.8705 42.4736 73.5682 42.9218 73.1869 43.2842C72.7612 43.6803 72.2675 43.9831 71.7337 44.1755C70.6687 44.6291 69.4828 44.6291 68.4178 44.1755C67.884 43.9831 67.3903 43.6803 66.9646 43.2842C66.5833 42.9218 66.2809 42.4736 66.079 41.9713C65.9236 41.4668 65.8151 40.9469 65.7552 40.4194V34.5933H63.7618V40.4194C63.7571 41.2131 63.9114 41.9985 64.2144 42.7223C64.5173 43.4461 64.9617 44.0912 65.5173 44.6138C66.1389 45.1908 66.8581 45.6337 67.6356 45.9183C69.2203 46.4715 70.9272 46.4715 72.512 45.9183C73.2892 45.6316 74.0078 45.1866 74.6284 44.6075C75.184 44.0849 75.6283 43.4398 75.9313 42.716C76.2342 41.9922 76.3886 41.2068 76.3839 40.4131V34.5933H72.9041Z" fill="#484E61"/>
<path d="M143.501 36.4995L138.788 46.109H136.781L142.383 34.677V34.6057H145.36L150.999 46.109H148.992L147.794 43.6762H144.203C143.97 43.6762 143.739 43.6268 143.523 43.5308C143.308 43.4348 143.112 43.294 142.947 43.1166C142.782 42.9392 142.651 42.7286 142.562 42.4968C142.472 42.265 142.426 42.0165 142.426 41.7656H146.854L144.266 36.4995H143.501Z" fill="#484E61"/>
</g>
<defs>
<clipPath id="clip0_12_1089">
<rect width="180" height="80" fill="white" transform="translate(0 0.338379)"/>
</clipPath>
</defs>
</svg>
