<svg width="90" height="90" viewBox="0 0 90 90" fill="none" xmlns="http://www.w3.org/2000/svg">
<rect width="90" height="90" rx="24" fill="#EBE8FF"/>
<g clip-path="url(#clip0_12_685)">
<path d="M67.2473 45.1049C67.5026 45.1049 67.7476 45.0034 67.9281 44.8229C68.1086 44.6424 68.2102 44.3974 68.2102 44.1421V26.8134C68.2085 25.5373 67.7009 24.314 66.7987 23.4115C65.8961 22.5092 64.6729 22.0016 63.3967 22H26.8134C25.5373 22.0016 24.314 22.5093 23.4115 23.4115C22.5092 24.314 22.0016 25.5373 22 26.8134V53.7694C22.0016 55.0456 22.5093 56.2691 23.4115 57.1714C24.314 58.074 25.5373 58.5816 26.8134 58.5828H37.4037V62.8812L34.944 64.5177V64.518C34.6754 64.6972 34.5146 64.9989 34.5156 65.3219V66.2847C34.5156 66.7953 34.7183 67.2849 35.0793 67.6459C35.4403 68.0072 35.9303 68.21 36.4409 68.21H53.7696C54.2801 68.21 54.7701 68.0072 55.1311 67.6459C55.4921 67.2849 55.6949 66.7952 55.6949 66.2847V65.3219C55.6949 65.0002 55.5343 64.6995 55.2665 64.5209L52.8067 62.8815V61.471C52.8067 60.9394 52.3757 60.5085 51.8442 60.5085C51.3124 60.5085 50.8814 60.9394 50.8814 61.471V63.3966C50.8814 63.7183 51.0422 64.0187 51.3098 64.1976L53.7696 65.837V66.2847H36.4409V65.837L38.9006 64.2005C39.1691 64.0213 39.33 63.7192 39.329 63.3966V58.5828H63.3969C64.673 58.5815 65.8963 58.0739 66.7989 57.1714C67.7011 56.2691 68.2088 55.0456 68.2103 53.7694V48.956C68.2103 48.7007 68.1088 48.4557 67.9283 48.2752C67.7478 48.0947 67.5028 47.9932 67.2475 47.9932H30.665C30.1448 48.0267 29.6354 47.8346 29.2667 47.4659C28.8983 47.0974 28.7062 46.5878 28.7397 46.0679V29.7014C28.7397 29.1699 29.1707 28.7389 29.7022 28.7389H54.3337L60.1099 34.5151H56.6577C56.1262 34.5151 55.6949 34.0838 55.6949 33.5523V32.5895C55.6949 32.058 55.264 31.627 54.7324 31.627C54.2006 31.627 53.7696 32.058 53.7696 32.5895V33.5523C53.7696 34.3182 54.0739 35.0528 54.6154 35.5946C55.1573 36.1361 55.8919 36.4404 56.6577 36.4404H61.4711V45.1048C61.4711 45.6363 61.9024 46.0676 62.434 46.0676C62.9655 46.0676 63.3968 45.6363 63.3968 45.1048V35.4775C63.3968 35.3501 63.3713 35.2241 63.3217 35.1068C63.274 34.9904 63.203 34.8847 63.1138 34.796L55.4119 27.0942C55.2317 26.9143 54.9871 26.8134 54.7324 26.8131H29.7015C28.9357 26.8131 28.201 27.1174 27.6596 27.6592C27.1177 28.2008 26.8134 28.9354 26.8134 29.7012V46.0678C26.7835 47.0979 27.1793 48.0949 27.9081 48.8237C28.6372 49.5525 29.6342 49.9486 30.6644 49.9184H66.2847V53.7693C66.2847 54.5351 65.9804 55.2698 65.4386 55.8116C64.8971 56.3531 64.1624 56.6574 63.3966 56.6574H26.8133C26.0474 56.6574 25.3128 56.3531 24.7713 55.8116C24.2294 55.2698 23.9252 54.5351 23.9252 53.7693V26.8133C23.9252 26.0474 24.2294 25.3128 24.7713 24.7713C25.3128 24.2295 26.0474 23.9252 26.8133 23.9252H63.3966C64.1625 23.9252 64.8971 24.2294 65.4386 24.7713C65.9804 25.3128 66.2847 26.0474 66.2847 26.8133V44.142C66.2847 44.3973 66.3859 44.6422 66.5664 44.8227C66.7473 45.0032 66.9919 45.1048 67.2472 45.1048L67.2473 45.1049Z" fill="#7D69FF"/>
<path d="M32.5894 43.1798H35.6548C35.96 44.0431 36.6566 44.7106 37.5324 44.9788C38.4082 45.2467 39.3591 45.0836 40.0953 44.5388C40.8315 43.9944 41.2657 43.1328 41.2657 42.217C41.2657 41.3012 40.8316 40.4397 40.0953 39.8952C39.3591 39.3505 38.4082 39.1874 37.5324 39.4552C36.6566 39.7234 35.96 40.391 35.6548 41.2542H32.5894C32.0579 41.2542 31.627 41.6855 31.627 42.217C31.627 42.7486 32.0579 43.1798 32.5894 43.1798ZM38.3657 41.2542C38.755 41.2542 39.1061 41.4889 39.2553 41.8486C39.4042 42.2083 39.3217 42.6225 39.0464 42.8978C38.7712 43.1731 38.3569 43.2556 37.9972 43.1064C37.6375 42.9574 37.4031 42.6064 37.4031 42.2171C37.4031 41.6855 37.8341 41.2542 38.3657 41.2542Z" fill="#7D69FF"/>
<path d="M49.9184 41.2538H44.1422C43.6106 41.2538 43.1797 41.6851 43.1797 42.2166C43.1797 42.7481 43.6107 43.1794 44.1422 43.1794H49.9184C50.4503 43.1794 50.8812 42.7481 50.8812 42.2166C50.8812 41.6851 50.4503 41.2538 49.9184 41.2538Z" fill="#7D69FF"/>
<path d="M49.9186 33.5525H46.8535C46.5482 32.6889 45.8513 32.0217 44.9759 31.7535C44.1001 31.4853 43.1492 31.6487 42.4129 32.1932C41.6767 32.7379 41.2422 33.5995 41.2422 34.5153C41.2422 35.4311 41.6767 36.2926 42.4129 36.8371C43.1492 37.3818 44.1 37.5449 44.9759 37.2767C45.8513 37.0089 46.5482 36.3413 46.8535 35.4778H49.9186C50.4504 35.4778 50.8814 35.0468 50.8814 34.5153C50.8814 33.9834 50.4504 33.5525 49.9186 33.5525ZM44.1423 35.4778C43.753 35.4778 43.4019 35.2434 43.2531 34.8837C43.1041 34.524 43.1863 34.1098 43.4616 33.8345C43.7372 33.5592 44.1511 33.4767 44.5108 33.6256C44.8705 33.7749 45.1052 34.1259 45.1052 34.5152C45.1052 34.7705 45.0037 35.0152 44.8232 35.196C44.6426 35.3765 44.3976 35.4778 44.1423 35.4778Z" fill="#7D69FF"/>
<path d="M32.5894 35.4775H38.3657C38.8975 35.4775 39.3285 35.0466 39.3285 34.5151C39.3285 33.9832 38.8975 33.5522 38.3657 33.5522H32.5894C32.0579 33.5522 31.627 33.9832 31.627 34.5151C31.627 35.0466 32.0579 35.4775 32.5894 35.4775Z" fill="#7D69FF"/>
</g>
<defs>
<clipPath id="clip0_12_685">
<rect width="50" height="50" fill="white" transform="translate(20 20)"/>
</clipPath>
</defs>
</svg>
