<svg width="90" height="90" viewBox="0 0 90 90" fill="none" xmlns="http://www.w3.org/2000/svg">
<rect width="90" height="90" rx="24" fill="#FFEDE8"/>
<path d="M68.1772 20.9108H63.8963C63.5372 20.9108 63.2456 21.2024 63.2456 21.5615V23.0512H47.7677V21.5615C47.7677 21.2024 47.4764 20.9108 47.1169 20.9108H42.836C42.4766 20.9108 42.1853 21.2024 42.1853 21.5615V23.0512H26.7074V21.5615C26.7074 21.2024 26.4157 20.9108 26.0567 20.9108H21.7757C21.4163 20.9108 21.125 21.2024 21.125 21.5615V25.8424C21.125 26.2019 21.4163 26.4932 21.7757 26.4932H26.0567C26.4157 26.4932 26.7074 26.2019 26.7074 25.8424V24.3528H39.9929C32.8635 26.4328 27.5255 32.8537 26.9335 40.612H24.8372C24.4777 40.612 24.1864 40.9033 24.1864 41.2627V45.5437C24.1864 45.9031 24.4777 46.1944 24.8372 46.1944H29.1181C29.4775 46.1944 29.7688 45.9031 29.7688 45.5437V41.2627C29.7688 40.9033 29.4775 40.612 29.1181 40.612H28.238C28.8795 32.7966 34.6989 26.4599 42.1859 25.1798V25.8425C42.1859 26.202 42.4772 26.4932 42.8366 26.4932H47.1175H47.1172C47.4766 26.4932 47.7679 26.202 47.7679 25.8425V25.1798C55.2545 26.4603 61.0742 32.7964 61.7157 40.612H60.8357C60.4762 40.612 60.185 40.9033 60.185 41.2627V45.5437C60.185 45.9031 60.4762 46.1944 60.8357 46.1944H65.1166C65.4761 46.1944 65.7674 45.9031 65.7674 45.5437V41.2627C65.7674 40.9033 65.4761 40.612 65.1166 40.612H63.0207C62.4288 32.8539 57.0908 26.4331 49.9613 24.3528H63.2468V25.8424C63.2468 26.2019 63.538 26.4932 63.8975 26.4932H68.1784C68.5375 26.4932 68.8292 26.2019 68.8292 25.8424V21.5615C68.8292 21.3891 68.7602 21.2233 68.6382 21.1013C68.5162 20.9793 68.3508 20.9108 68.178 20.9108H68.1772ZM25.4056 25.1917H22.4261V22.2122H25.4056V25.1917ZM28.4675 41.913V44.8925H25.4881V41.913H28.4675ZM46.4661 25.1917H43.4866V22.2122H46.4661V25.1917ZM64.4646 41.913V44.8925H61.4851V41.913H64.4646ZM67.5265 25.1917H64.5471V22.2122H67.5265V25.1917Z" fill="#FF574D"/>
<path d="M49.5012 42.5473C48.2186 39.7216 47.3235 36.736 46.8397 33.6705C47.2174 33.1968 47.4018 32.5976 47.3564 31.9929C47.3107 31.3886 47.0384 30.8239 46.5941 30.4118C46.1498 29.9997 45.5661 29.7707 44.96 29.7711H44.9573C44.3197 29.7715 43.7081 30.0256 43.2576 30.4769C42.8071 30.9281 42.5541 31.5398 42.5545 32.1777C42.5549 32.7219 42.7412 33.2498 43.0821 33.6744C42.6049 36.7406 41.7152 39.7282 40.4373 42.5557C38.8198 46.0903 35.802 49.9525 35.7717 49.9911C35.6455 50.1519 35.6021 50.363 35.6548 50.5605L39.0207 63.1747C38.4064 63.373 37.8703 63.7607 37.4899 64.2825C37.1095 64.8046 36.9046 65.4332 36.9042 66.0794C36.905 66.8936 37.4605 69.0073 39.9526 69.1251H39.9557L50.0403 69.1165C50.8483 69.115 51.623 68.7927 52.1939 68.2206C52.7649 67.6485 53.086 66.8734 53.086 66.0651C53.0852 65.2509 52.7258 63.8262 50.9618 63.1592L54.2991 50.5421C54.3514 50.3445 54.3076 50.1338 54.1814 49.9731C54.1508 49.9343 51.1275 46.0818 49.5015 42.5465L49.5012 42.5473ZM44.9585 31.0725C45.7974 31.0725 46.0624 31.8797 46.0624 32.1741H46.0628C46.0624 32.525 45.8943 32.8546 45.6111 33.0611L45.6104 32.1748V32.1752C45.61 31.8158 45.3183 31.5245 44.9589 31.5249C44.5994 31.5252 44.3085 31.8169 44.3089 32.1764L44.3097 33.0626C44.0257 32.8562 43.8573 32.5269 43.8561 32.1764C43.8557 31.8816 44.1195 31.0725 44.9585 31.0725ZM46.4327 49.9932H46.433C46.8196 50.379 47.0369 50.9031 47.0373 51.4493C47.0381 51.9958 46.8216 52.5199 46.4354 52.9064C46.0496 53.2934 45.5259 53.5111 44.9793 53.5118H44.9774C44.4316 53.5114 43.9079 53.2949 43.5213 52.9087C43.1351 52.5229 42.9178 51.9993 42.9174 51.4531C42.9178 50.9069 43.1344 50.3832 43.5202 49.9966C43.9059 49.61 44.4293 49.3923 44.9754 49.3912H44.9774C45.5235 49.3892 46.0476 49.6062 46.433 49.9927L46.4327 49.9932ZM51.7838 66.067H51.7842C51.7838 66.5299 51.6002 66.9742 51.2729 67.3022C50.9456 67.6299 50.5017 67.8147 50.0389 67.8159L39.9543 67.8244H39.9524V67.824C39.328 67.8244 38.7513 67.4917 38.439 66.9509C38.1264 66.4106 38.1264 65.7447 38.4382 65.204C38.75 64.6633 39.3268 64.3302 39.9508 64.3298L50.0354 64.3213H50.0373C50.5006 64.3209 50.9449 64.5049 51.2725 64.8322C51.6002 65.1595 51.7842 65.6038 51.7842 66.0666L51.7838 66.067ZM49.6519 63.0205L40.3282 63.0283L36.9955 50.5361C37.7144 49.5925 40.1656 46.2777 41.6208 43.0979C43.3364 39.6293 44.2989 34.4861 44.3109 34.4896L44.3237 48.1549V48.1545C43.5607 48.3071 42.8739 48.7188 42.3804 49.3204C41.8869 49.922 41.6169 50.6761 41.6165 51.4543C41.6173 52.3522 42.1852 54.6758 44.9779 54.813H44.981C46.1039 54.8114 47.1521 54.2494 47.7745 53.3144C48.397 52.3797 48.5116 51.1956 48.0801 50.1587C47.6482 49.1218 46.7275 48.3692 45.6251 48.1523L45.6123 34.4881C45.6247 34.4846 46.6113 39.5696 48.3187 43.0914C49.7801 46.2688 52.2375 49.579 52.9583 50.521L49.6519 63.0205Z" fill="#FF574D"/>
</svg>
