<svg width="50" height="50" viewBox="0 0 50 50" fill="none" xmlns="http://www.w3.org/2000/svg">
<path d="M10.0927 8.00121C6.72623 8.00121 4 10.7388 4 14.106V32.675C4 34.8379 5.462 36.4331 7.1616 37.5148C7.17705 37.5796 7.16896 37.6579 7.18587 37.7215L7.25868 37.6594C7.47526 37.7881 7.41496 38.1657 7.64772 38.2675H7.64846C7.93748 38.3955 8.27467 38.347 8.51552 38.1422C8.75674 37.9373 8.85896 37.6127 8.77954 37.3067C8.67732 36.918 8.60929 36.5415 8.60929 36.1635V17.5822C8.60929 15.0998 10.589 13.1315 13.0722 13.1315H40.0568C40.6944 13.1315 41.2968 13.258 41.8443 13.4962C42.1336 13.6246 42.4705 13.5757 42.7113 13.3712C42.9525 13.1664 43.0551 12.8417 42.9753 12.5358C42.9066 12.2769 42.4922 12.3302 42.3918 12.0857L42.5014 11.9886C42.4043 11.9449 42.2848 11.9511 42.1851 11.9158C41.2158 9.84042 39.5442 8 37.1019 8H32.9916C32.5349 8 32.1646 8.36992 32.1646 8.82661C32.1646 9.28331 32.5349 9.6536 32.9916 9.6536H37.1019C38.2484 9.6536 38.6823 10.7763 39.4611 11.4778H13.0723C9.70587 11.4778 6.9675 14.2155 6.9675 17.5827V34.7048C6.5016 34.0036 5.64189 33.5891 5.64189 32.6739V14.1049C5.64189 11.6225 7.60949 9.65417 10.0927 9.65417H26.3996L26.4 9.6538C26.8563 9.6538 27.2266 9.28351 27.2266 8.82681C27.2266 8.37011 26.8563 8.0002 26.4 8.0002L10.0927 8.00121ZM28.358 8.00121C27.9013 8.02475 27.5501 8.41379 27.5736 8.87049C27.5972 9.32719 27.9866 9.67835 28.4429 9.65482H30.8264C31.2831 9.65482 31.6534 9.28453 31.6534 8.82783C31.6534 8.37149 31.2831 8.00121 30.8264 8.00121H28.4429C28.4146 7.99974 28.3863 7.99974 28.358 8.00121Z" fill="#12C2B4"/>
<path d="M19.445 20.989C19.3178 21.0095 19.1968 21.0592 19.0924 21.1349L11.5528 26.2304V26.23C11.3222 26.3826 11.1836 26.6407 11.1836 26.9172C11.1836 27.1938 11.3222 27.4519 11.5528 27.6041L19.1287 32.6384V32.6388C19.3111 32.7598 19.534 32.8036 19.7483 32.7602C19.9627 32.7171 20.1513 32.5903 20.2723 32.4079C20.3933 32.2255 20.437 32.0027 20.3937 31.7883C20.3499 31.5739 20.223 31.3857 20.0407 31.2647L13.4862 26.9113L20.0164 22.4969C20.3451 22.2869 20.4812 21.8751 20.3433 21.5106C20.205 21.1459 19.83 20.9282 19.4449 20.9889L19.445 20.989Z" fill="#12C2B4"/>
<path d="M32.5909 20.9889C32.2427 21.0217 31.953 21.2702 31.868 21.6096C31.7834 21.9487 31.9221 22.3046 32.2137 22.4969L38.7439 26.9114L32.1894 31.2647C32.007 31.3857 31.8801 31.574 31.8367 31.7887C31.7933 32.0031 31.8367 32.2259 31.9577 32.4083C32.0787 32.5907 32.2673 32.7175 32.4817 32.7606C32.6964 32.804 32.9193 32.7602 33.1013 32.6389L40.6772 27.6045H40.6776C40.9082 27.4519 41.0468 27.1938 41.0468 26.9173C41.0468 26.6408 40.9082 26.383 40.6776 26.2304L33.138 21.135C32.9784 21.0232 32.7846 20.9717 32.5908 20.9894L32.5909 20.9889Z" fill="#12C2B4"/>
<path d="M29.7198 19.4075C29.4477 19.4336 29.2061 19.5932 29.0752 19.8333L21.5842 33.1006V33.101C21.4761 33.2911 21.4481 33.5165 21.5062 33.7276C21.5643 33.9387 21.704 34.1177 21.8942 34.2258C22.0846 34.3339 22.31 34.3619 22.5211 34.3038C22.7322 34.2457 22.9112 34.106 23.0194 33.9155L30.5104 20.6482H30.51C30.6689 20.3808 30.6637 20.047 30.4968 19.7848C30.3295 19.5226 30.0291 19.3766 29.7198 19.4079L29.7198 19.4075Z" fill="#12C2B4"/>
<path d="M13.0736 11.4795C9.70675 11.4795 6.96875 14.2175 6.96875 17.5843V36.1655C6.96875 39.5323 9.70675 42.2703 13.0736 42.2703H40.0704C43.4372 42.2703 46.1627 39.5323 46.1627 36.1655V17.5843C46.1627 14.2175 43.4369 11.4795 40.0704 11.4795H13.0736ZM13.0736 13.1334H40.0704C42.5528 13.1334 44.5212 15.1014 44.5212 17.5842V36.1654C44.5212 38.6479 42.5528 40.6162 40.0704 40.6162H13.0736C10.5911 40.6162 8.61065 38.6482 8.61065 36.1654V17.5842C8.61065 15.1018 10.5911 13.1334 13.0736 13.1334Z" fill="#12C2B4"/>
</svg>
