<svg width="90" height="90" viewBox="0 0 90 90" fill="none" xmlns="http://www.w3.org/2000/svg">
<rect width="90" height="90" rx="24" fill="#FCFFE8"/>
<path d="M65.9015 27.6093H62.9978C62.5493 27.6093 62.1853 27.9732 62.1853 28.4221C62.1853 28.8706 62.5493 29.2345 62.9978 29.2345H65.9015C66.3259 29.2357 66.7329 29.4053 67.0322 29.7058C67.3319 30.0066 67.5 30.4139 67.4996 30.8383V57.5731C67.4993 57.9967 67.3307 58.4029 67.0311 58.7026C66.7318 59.0023 66.3255 59.1708 65.9015 59.1712H32.0206V58.2866C32.0206 57.8376 31.6567 57.4741 31.2078 57.4741C30.7589 57.4741 30.3953 57.8376 30.3953 58.2866V59.1727H28.8736V58.2866C28.8752 57.8682 29.2137 57.53 29.6321 57.5282C30.0806 57.5282 30.4445 57.1642 30.4445 56.7153C30.4445 56.2668 30.0806 55.9029 29.6321 55.9029C29.0002 55.904 28.3945 56.1557 27.9478 56.6023C27.5012 57.0494 27.2495 57.6548 27.2484 58.2866V59.1727H24.1335C23.7095 59.1723 23.3032 59.0038 23.0039 58.7041C22.7043 58.4045 22.5357 57.9982 22.5354 57.5746V30.8398C22.535 30.4154 22.7031 30.0081 23.0028 29.7077C23.3021 29.4069 23.7091 29.2376 24.1335 29.2365H36.5731C37.0221 29.2365 37.3856 28.8725 37.3856 28.4236C37.3856 27.9751 37.0221 27.6112 36.5731 27.6112H24.1335C23.2779 27.6127 22.4583 27.9535 21.8541 28.5589C21.2499 29.1643 20.9105 29.9847 20.9102 30.8398V57.5746C20.9109 58.4294 21.251 59.2487 21.8552 59.8529C22.4595 60.4572 23.2788 60.7969 24.1335 60.798H34.9983V62.46H34.1106C33.5748 62.4607 33.0608 62.6742 32.6818 63.0529C32.3028 63.4319 32.0897 63.9458 32.0889 64.482V65.3515V65.3512C32.0897 65.8874 32.3028 66.4013 32.6818 66.7803C33.0608 67.1589 33.5748 67.3724 34.1106 67.3732H55.9214C56.4573 67.3724 56.9712 67.1589 57.3503 66.7803C57.7293 66.4013 57.9424 65.8873 57.9432 65.3512V64.482C57.9424 63.9458 57.7293 63.4319 57.3503 63.0529C56.9712 62.6742 56.4573 62.4607 55.9214 62.46H55.0334V60.798H65.9011C66.7558 60.7969 67.5751 60.4572 68.1794 59.8529C68.7836 59.2487 69.1237 58.4294 69.1244 57.5746V30.8398C69.1248 29.9843 68.7855 29.1635 68.1809 28.5578C67.5766 27.9524 66.7566 27.6111 65.9011 27.6093L65.9015 27.6093ZM56.3184 64.4823V65.3518V65.3514C56.3184 65.5706 56.1408 65.7482 55.922 65.7482H34.1112C33.8924 65.7482 33.7148 65.5706 33.7148 65.3514V64.4823C33.7151 64.2631 33.8924 64.0859 34.1112 64.0855H55.922C56.1407 64.0859 56.318 64.2631 56.3184 64.4823ZM53.4086 62.4607L36.6235 62.4603V60.7983H53.4086V62.4607Z" fill="#BAD11C"/>
<path d="M26.3285 31.8039H35.0935C35.5424 31.8039 35.9063 31.44 35.9063 30.991C35.9063 30.5425 35.5424 30.1786 35.0935 30.1786H25.5156C25.067 30.1786 24.7031 30.5425 24.7031 30.991V54.161C24.7031 54.6099 25.067 54.9738 25.5156 54.9738H64.5207C64.9693 54.9738 65.3332 54.6099 65.3332 54.161V50.9648C65.3332 50.5163 64.9693 50.1524 64.5207 50.1524C64.0718 50.1524 63.7079 50.5163 63.7079 50.9648V53.3486H26.328L26.3285 31.8039Z" fill="#BAD11C"/>
<path d="M64.5196 49.0689C64.9682 49.0689 65.3321 48.705 65.3321 48.2561V30.991C65.3321 30.5425 64.9682 30.1786 64.5196 30.1786H64.4652C64.1973 30.1786 63.9467 30.3105 63.7948 30.5315C63.6433 30.7522 63.6104 31.0337 63.7068 31.2839V48.2568V48.2564C63.7068 48.7053 64.0707 49.0692 64.5196 49.0692L64.5196 49.0689Z" fill="#BAD11C"/>
<path d="M28.9002 52.0919H45.0062C45.6517 52.0953 46.2064 51.6343 46.3213 50.9994C46.3912 50.6072 46.1667 50.2221 45.7911 50.0899C45.4151 49.9576 44.9991 50.1171 44.8083 50.4666H29.1878V46.2683H30.3362C30.7851 46.2683 31.149 45.9044 31.149 45.4559C31.149 45.007 30.7851 44.6431 30.3362 44.6431H28.9006C28.1622 44.6438 27.5637 45.2424 27.5625 45.9812V50.7539C27.5636 51.4926 28.1622 52.0912 28.9006 52.092L28.9002 52.0919Z" fill="#BAD11C"/>
<path d="M37.7201 44.6431H33.0449C32.5963 44.6431 32.2324 45.007 32.2324 45.4559C32.2324 45.9044 32.5963 46.2683 33.0449 46.2683H37.7201C38.169 46.2683 38.5329 45.9044 38.5329 45.4559C38.5329 45.007 38.169 44.6431 37.7201 44.6431Z" fill="#BAD11C"/>
<path d="M33.4123 34.529C33.8612 34.529 34.2251 34.1651 34.2251 33.7161C34.2251 33.2676 33.8612 32.9037 33.4123 32.9037H30.8929C30.444 32.9037 30.0801 33.2676 30.0801 33.7161C30.0801 34.1651 30.444 34.529 30.8929 34.529H33.4123Z" fill="#BAD11C"/>
<path d="M27.5605 36.3816C27.5605 36.8301 27.9244 37.194 28.3734 37.194H33.4114C33.8603 37.194 34.2238 36.8301 34.2238 36.3816C34.2238 35.9326 33.8603 35.5687 33.4114 35.5687H28.3734C27.9244 35.5687 27.5605 35.9326 27.5605 36.3816Z" fill="#BAD11C"/>
<path d="M28.3734 39.8593H33.4114C33.8603 39.8593 34.2238 39.4958 34.2238 39.0468C34.2238 38.5979 33.8603 38.2344 33.4114 38.2344H28.3734C27.9244 38.2344 27.5605 38.5979 27.5605 39.0468C27.5605 39.4958 27.9244 39.8593 28.3734 39.8593Z" fill="#BAD11C"/>
<path d="M59.6445 56.2605C59.1959 56.2605 58.832 56.624 58.832 57.073C58.832 57.5219 59.1959 57.8854 59.6445 57.8854H62.0241C62.4726 57.8854 62.8365 57.5219 62.8365 57.073C62.8365 56.624 62.4726 56.2605 62.0241 56.2605H59.6445Z" fill="#BAD11C"/>
<path d="M54.75 56.2605C54.3014 56.2605 53.9375 56.624 53.9375 57.073C53.9375 57.5219 54.3014 57.8854 54.75 57.8854H57.1299C57.5789 57.8854 57.9428 57.5219 57.9428 57.073C57.9428 56.624 57.5789 56.2605 57.1299 56.2605H54.75Z" fill="#BAD11C"/>
<path d="M48.2728 41.5019C48.7686 41.6368 49.2795 41.7052 49.7931 41.7056C51.7675 41.706 53.606 40.6989 54.6682 39.0343C55.7308 37.3701 55.8707 35.2785 55.0389 33.4877C54.2072 31.6969 52.5192 30.4541 50.5622 30.1918C48.6051 29.9295 46.6495 30.6842 45.3761 32.1931C44.1022 33.7017 43.6861 35.7562 44.2731 37.6415C44.8599 39.5267 46.368 40.9824 48.273 41.502L48.2728 41.5019ZM45.7863 34.8511C46.1234 33.6082 47.019 32.5928 48.2101 32.1035C49.4012 31.6142 50.7522 31.7071 51.8654 32.3541C52.9787 33.0014 53.7277 34.1297 53.8916 35.407C54.0556 36.6843 53.6161 37.9649 52.7028 38.8726C51.7895 39.7803 50.5058 40.2111 49.2297 40.0388C47.9536 39.8665 46.8301 39.1107 46.1899 37.9933C45.6454 37.0402 45.5003 35.9107 45.7863 34.8511Z" fill="#BAD11C"/>
<path d="M37.5506 34.2823L39.0206 35.139C38.9794 35.6491 38.9748 36.1611 39.0062 36.6717L37.5419 37.5099C37.1058 37.7597 36.7865 38.1723 36.6546 38.6571C36.5223 39.1419 36.5885 39.6596 36.8379 40.0961L39.6493 45.0026C39.8991 45.4387 40.3117 45.758 40.7965 45.8903C41.2817 46.0221 41.799 45.9564 42.2355 45.707L43.7013 44.8673C44.126 45.1526 44.5704 45.4073 45.0307 45.6299L45.0254 47.3292C45.0239 47.8318 45.2219 48.3144 45.5764 48.6711C45.9304 49.0274 46.4115 49.2288 46.9141 49.2307L52.5687 49.2493H52.5748H52.5744C53.0763 49.2493 53.5573 49.0505 53.9129 48.6964C54.2681 48.3423 54.4688 47.862 54.4707 47.3603L54.4759 45.6662C54.7204 45.5501 54.9457 45.4334 55.1565 45.3125C55.3674 45.1915 55.5835 45.0563 55.8065 44.904L57.2693 45.7557C57.7042 46.0082 58.2216 46.0777 58.7079 45.9484C59.1939 45.8196 59.6091 45.5025 59.8616 45.0676L62.7041 40.18C62.9565 39.7455 63.026 39.2285 62.8976 38.7426C62.7691 38.257 62.4532 37.8417 62.0186 37.5889L60.5493 36.7345C60.5905 36.2247 60.5951 35.7123 60.5637 35.2014L62.0295 34.3617C62.4656 34.1119 62.7849 33.6989 62.9164 33.2141C63.0483 32.7289 62.9821 32.2112 62.7327 31.7751L59.9216 26.8698C59.6718 26.4333 59.2592 26.114 58.774 25.9817C58.2888 25.8498 57.7711 25.916 57.3346 26.1654L55.8718 27.005H55.8722C55.4474 26.7197 55.003 26.465 54.5428 26.2421L54.5481 24.542V24.5424C54.5488 24.0398 54.3501 23.5572 53.9952 23.2013C53.6404 22.8453 53.159 22.6446 52.6564 22.6435L47.0009 22.625C46.4987 22.6254 46.0169 22.8234 45.6591 23.176C45.3012 23.5293 45.0998 24.0115 45.0994 24.5141L45.0941 26.2081C44.8504 26.323 44.6251 26.4405 44.4132 26.5618C44.2012 26.6831 43.9869 26.818 43.7632 26.9707L42.3004 26.1186V26.119C41.8658 25.8662 41.3489 25.7963 40.8626 25.9247C40.3766 26.0536 39.9617 26.3695 39.7088 26.8041L36.8652 31.6916C36.6128 32.1262 36.5432 32.6431 36.6717 33.1287C36.8002 33.6143 37.1161 34.0292 37.5503 34.2824L37.5506 34.2823ZM38.2701 32.5085L41.1134 27.621C41.1886 27.4925 41.3537 27.4487 41.4826 27.5235L43.4007 28.6394H43.4011C43.6822 28.803 44.0344 28.783 44.2955 28.5883C44.8851 28.136 45.5331 27.7646 46.2216 27.4846C46.5217 27.3576 46.717 27.064 46.7182 26.7386L46.7253 24.5174H46.725C46.725 24.3677 46.8463 24.2464 46.9959 24.2464L52.6498 24.265H52.6502C52.722 24.265 52.7908 24.2933 52.8414 24.3443C52.8924 24.3949 52.9208 24.4641 52.9208 24.5359L52.9136 26.7597H52.914C52.9125 27.0855 53.1063 27.3806 53.4056 27.5095C54.0903 27.7989 54.7369 28.1704 55.3317 28.6163C55.5917 28.8128 55.9438 28.8351 56.2265 28.6729L58.1443 27.5737C58.2059 27.5378 58.2799 27.5283 58.3487 27.5476C58.4175 27.5665 58.476 27.6119 58.5112 27.6738L61.3226 32.58C61.3963 32.7096 61.3513 32.874 61.2225 32.9484L59.3047 34.0476C59.0221 34.2094 58.8633 34.5242 58.9015 34.8476C58.9854 35.586 58.9794 36.332 58.8834 37.0688C58.8426 37.3923 58.999 37.709 59.2809 37.8726L61.2028 38.9904C61.3317 39.0656 61.3751 39.2308 61.3003 39.36L58.4578 44.2475C58.3826 44.376 58.2175 44.4195 58.0883 44.345L56.1697 43.2325C55.8886 43.0693 55.5372 43.0889 55.2764 43.2832C54.6854 43.7351 54.037 44.1066 53.348 44.3877C53.0487 44.5147 52.8537 44.808 52.8526 45.1333L52.8454 47.3545V47.3542C52.8375 47.5004 52.7207 47.6172 52.5745 47.6251L46.9198 47.6066C46.7701 47.6066 46.6492 47.4853 46.6492 47.336L46.6564 45.1148H46.656C46.6572 44.7887 46.4633 44.4935 46.1636 44.3651C45.4797 44.0752 44.8331 43.7038 44.2383 43.2583C43.9787 43.0618 43.6265 43.0395 43.3439 43.2012L41.4284 44.2945C41.2987 44.3685 41.134 44.3239 41.0595 44.1951L38.2462 39.2878C38.1729 39.1586 38.2175 38.9946 38.3459 38.9201L40.2641 37.8209C40.5467 37.6588 40.7054 37.3436 40.6673 37.0201C40.5834 36.2817 40.5898 35.5358 40.6858 34.7989C40.7262 34.4754 40.5698 34.1591 40.2879 33.9951L38.366 32.8769C38.2386 32.801 38.1959 32.637 38.27 32.5085L38.2701 32.5085Z" fill="#BAD11C"/>
</svg>
