<svg width="83" height="24" viewBox="0 0 83 24" fill="none" xmlns="http://www.w3.org/2000/svg">
<path d="M0.629113 3.761C0.629113 2.815 1.32211 2.342 2.70811 2.342C3.30211 2.342 4.43511 2.364 6.10711 2.408C7.95511 2.496 9.35211 2.54 10.2981 2.54C11.0681 2.54 12.0031 2.496 13.1031 2.408C13.8511 2.364 14.3241 2.342 14.5221 2.342C15.7321 2.386 16.7551 2.606 17.5911 3.002C17.8331 3.112 18.0311 3.244 18.1851 3.398C18.3391 3.552 18.4161 3.805 18.4161 4.157C18.4161 4.641 18.2621 5.059 17.9541 5.411C17.6461 5.741 17.2721 5.906 16.8321 5.906C16.3481 5.906 15.6441 5.84 14.7201 5.708C13.9061 5.554 13.1911 5.477 12.5751 5.477C11.9811 5.477 11.5301 5.488 11.2221 5.51C11.1561 6.236 11.1231 7.974 11.1231 10.724C11.1231 14.002 11.2221 17.324 11.4201 20.69L11.4861 21.647C11.4861 22.549 10.9691 23 9.93511 23C9.12111 23 8.57111 22.813 8.28511 22.439C7.99911 22.043 7.85611 21.449 7.85611 20.657C7.85611 19.095 7.81211 17.148 7.72411 14.816C7.63611 12.88 7.59211 11.505 7.59211 10.691C7.59211 10.141 7.65811 8.458 7.79011 5.642L3.92911 5.675C2.69711 5.675 1.83911 5.565 1.35511 5.345C0.871113 5.103 0.629113 4.575 0.629113 3.761ZM30.3263 12.407C30.5023 12.715 30.6453 13.166 30.7553 13.76C30.8653 14.332 30.9203 14.849 30.9203 15.311C30.9203 16.169 30.7333 17.39 30.3593 18.974C28.8413 21.746 26.5973 23.132 23.6273 23.132C22.5273 23.132 21.4053 22.769 20.2613 22.043C19.1173 21.317 18.3253 20.481 17.8853 19.535C17.2913 17.643 16.9943 16.444 16.9943 15.938C16.9943 15.058 17.1813 14.123 17.5553 13.133C17.9513 12.143 18.4463 11.285 19.0403 10.559C19.4143 10.053 20.0853 9.624 21.0533 9.272C22.0213 8.898 22.9013 8.711 23.6933 8.711C25.2333 8.711 26.5423 9.008 27.6203 9.602C28.6983 10.174 29.6003 11.109 30.3263 12.407ZM27.4553 17.72C27.5653 17.434 27.6203 16.697 27.6203 15.509C27.6203 14.871 27.4993 14.244 27.2573 13.628C27.0373 13.012 26.7073 12.484 26.2673 12.044C26.2233 12 26.1023 11.934 25.9043 11.846C25.7063 11.736 25.4313 11.637 25.0793 11.549C24.7493 11.439 24.3643 11.384 23.9243 11.384C22.6923 11.384 21.7903 11.879 21.2183 12.869C20.6463 13.859 20.3603 14.981 20.3603 16.235C20.3603 16.455 20.4153 16.873 20.5253 17.489C20.6573 18.105 20.7673 18.49 20.8553 18.644C20.9213 18.798 21.0863 19.018 21.3503 19.304C21.6363 19.568 21.9773 19.81 22.3733 20.03C22.7913 20.228 23.2203 20.327 23.6603 20.327C24.6503 20.327 25.4423 20.096 26.0363 19.634C26.6303 19.15 27.1033 18.512 27.4553 17.72ZM35.564 8.678C37.016 8.678 37.742 9.635 37.742 11.549C37.742 11.791 37.72 12.33 37.676 13.166C37.632 14.134 37.61 14.893 37.61 15.443C37.61 16.983 37.819 18.226 38.237 19.172C38.391 19.48 38.666 19.722 39.062 19.898C39.48 20.074 39.832 20.162 40.118 20.162C40.558 20.162 40.921 20.107 41.207 19.997C41.493 19.887 41.757 19.722 41.999 19.502C42.263 19.282 42.516 19.04 42.758 18.776C43.176 18.314 43.44 17.786 43.55 17.192C43.682 16.576 43.759 15.762 43.781 14.75C43.781 14.112 43.814 13.496 43.88 12.902C44.012 11.934 44.078 11.032 44.078 10.196C44.078 9.734 44.199 9.349 44.441 9.041C44.705 8.711 45.079 8.546 45.563 8.546C45.805 8.546 46.091 8.634 46.421 8.81C46.773 8.964 47.004 9.14 47.114 9.338C47.268 9.602 47.345 9.965 47.345 10.427C47.345 10.713 47.312 10.977 47.246 11.219C47.136 11.549 47.081 11.967 47.081 12.473C47.081 12.737 47.103 13.177 47.147 13.793C47.213 14.255 47.246 14.728 47.246 15.212C47.246 16.686 47.356 17.775 47.576 18.479C47.818 19.227 48.148 19.887 48.566 20.459C49.006 20.921 49.303 21.262 49.457 21.482C49.611 21.68 49.688 21.856 49.688 22.01C49.688 22.274 49.556 22.527 49.292 22.769C49.028 23.011 48.753 23.132 48.467 23.132C47.653 23.132 46.938 22.857 46.322 22.307C45.728 21.735 45.288 21.009 45.002 20.129C44.76 20.415 44.441 20.767 44.045 21.185C43.649 21.603 43.275 21.944 42.923 22.208C42.065 22.824 40.965 23.132 39.623 23.132C39.073 23.132 38.468 22.967 37.808 22.637C37.17 22.307 36.587 21.878 36.059 21.35C35.531 20.8 35.168 20.217 34.97 19.601C34.948 19.557 34.882 19.381 34.772 19.073C34.684 18.765 34.64 18.303 34.64 17.687L34.607 12.407C34.607 12.099 34.53 11.615 34.376 10.955C34.244 10.515 34.178 10.185 34.178 9.965C34.178 9.591 34.299 9.283 34.541 9.041C34.805 8.799 35.146 8.678 35.564 8.678ZM63.8746 11.978C63.8746 12.946 63.3796 13.43 62.3896 13.43C62.0596 13.43 61.7846 13.353 61.5646 13.199C61.3446 13.045 61.1026 12.814 60.8386 12.506C60.1786 11.78 59.6066 11.417 59.1226 11.417C58.4846 11.417 57.8576 11.604 57.2416 11.978C56.6476 12.352 56.1636 12.88 55.7896 13.562C55.4156 14.244 55.2286 15.003 55.2286 15.839C55.2286 16.763 55.4046 17.533 55.7566 18.149C56.1306 18.765 56.7026 19.293 57.4726 19.733C57.7586 19.887 58.0886 20.008 58.4626 20.096C58.8586 20.184 59.1996 20.228 59.4856 20.228C60.1236 20.228 60.9266 19.975 61.8946 19.469C62.2466 19.293 62.5436 19.161 62.7856 19.073C63.0276 18.985 63.2806 18.941 63.5446 18.941C63.7866 18.941 64.0616 19.051 64.3696 19.271C64.6776 19.491 64.8316 19.766 64.8316 20.096C64.8316 20.756 64.5236 21.317 63.9076 21.779C63.2916 22.219 62.5326 22.56 61.6306 22.802C60.7506 23.022 59.9036 23.132 59.0896 23.132C57.7916 23.132 56.5816 22.835 55.4596 22.241C54.3596 21.647 53.4796 20.833 52.8196 19.799C52.1596 18.743 51.8296 17.555 51.8296 16.235C51.8296 14.827 52.1486 13.54 52.7866 12.374C53.4246 11.208 54.2826 10.295 55.3606 9.635C56.4386 8.975 57.6156 8.645 58.8916 8.645C59.6176 8.645 60.3656 8.777 61.1356 9.041C61.9056 9.305 62.5546 9.69 63.0826 10.196C63.6106 10.702 63.8746 11.296 63.8746 11.978ZM81.0924 23.099C79.4424 23.099 78.3314 22.461 77.7594 21.185C77.4734 20.547 77.2864 19.722 77.1984 18.71C77.1104 17.676 77.0664 16.466 77.0664 15.08V14.057C77.0664 12.473 76.5384 11.681 75.4824 11.681C74.8664 11.681 74.2504 12 73.6344 12.638C73.0184 13.254 72.5014 14.079 72.0834 15.113C71.6874 16.125 71.4894 17.181 71.4894 18.281C71.4894 19.007 71.5224 19.667 71.5884 20.261C71.6324 21.009 71.6544 21.581 71.6544 21.977C71.6544 22.725 71.1374 23.099 70.1034 23.099C69.5974 23.099 69.1464 22.989 68.7504 22.769C68.3764 22.549 68.1894 22.263 68.1894 21.911C68.2774 20.789 68.3214 19.403 68.3214 17.753L68.2884 13.397C68.2884 12.693 68.2334 10.086 68.1234 5.576L68.0244 2.54C68.0244 2.056 68.2444 1.638 68.6844 1.286C69.1244 0.911999 69.6194 0.725 70.1694 0.725C70.6534 0.725 71.0054 0.835 71.2254 1.055C71.4454 1.275 71.5554 1.616 71.5554 2.078C71.5554 2.65 71.5444 3.321 71.5224 4.091C71.5004 4.839 71.4784 5.411 71.4564 5.807C71.3904 6.929 71.3574 8.051 71.3574 9.173C71.3574 10.273 71.3354 11.142 71.2914 11.78C71.9514 10.812 72.6994 10.097 73.5354 9.635C74.3934 9.151 75.3944 8.909 76.5384 8.909C77.3744 8.909 78.1444 9.283 78.8484 10.031C79.5744 10.757 80.0144 11.593 80.1684 12.539C80.2124 13.023 80.2344 13.738 80.2344 14.684L80.2014 17.093C80.2014 17.467 80.2234 18.05 80.2674 18.842C80.2894 19.216 80.4104 19.612 80.6304 20.03C80.8724 20.448 81.1474 20.756 81.4554 20.954C81.7414 21.13 81.9284 21.306 82.0164 21.482C82.1044 21.658 82.1484 21.856 82.1484 22.076C82.1484 22.296 82.0494 22.527 81.8514 22.769C81.6534 22.989 81.4004 23.099 81.0924 23.099Z" fill="#101010"/>
</svg>
