<svg width="72" height="17" viewBox="0 0 72 17" fill="none" xmlns="http://www.w3.org/2000/svg">
<path d="M17.6688 3.67167L13.3659 0.729671C12.9992 0.479371 12.5604 0.344971 12.1105 0.344971C11.6605 0.344971 11.2217 0.479371 10.855 0.729671L9.45406 1.68647L7.93106 2.72477L6.55206 3.67167C6.27126 3.86417 6.04226 4.11807 5.88406 4.41247C5.72596 4.70677 5.64316 5.03307 5.64256 5.36427V11.326C5.64276 11.4029 5.62426 11.4788 5.58856 11.5476C5.55286 11.6164 5.50086 11.6762 5.43676 11.7223L3.94336 12.71L5.37376 13.6853L6.38226 13.0174C6.66316 12.8253 6.89216 12.5716 7.05036 12.2774C7.20856 11.9832 7.29126 11.6571 7.29176 11.326V5.36427C7.29186 5.28517 7.31156 5.20727 7.34916 5.13697C7.38666 5.06657 7.44106 5.00567 7.50786 4.95937L11.8107 2.01857C11.8981 1.95847 12.0029 1.92617 12.1105 1.92617C12.218 1.92617 12.3228 1.95847 12.4102 2.01857L13.5332 2.78527L14.9623 3.76057L16.7143 4.95807C16.7818 5.00387 16.8367 5.06457 16.8746 5.13507C16.9124 5.20557 16.932 5.28377 16.9317 5.36307V11.326C16.9318 11.4051 16.9121 11.4831 16.8743 11.5533C16.8365 11.6236 16.7816 11.6841 16.7143 11.7297L12.4102 14.6594C12.3156 14.7219 12.2025 14.7534 12.0877 14.7491C11.973 14.7449 11.8627 14.7052 11.7734 14.6359L10.954 14.1421L9.51196 15.1409L10.855 15.9532C11.2216 16.2037 11.6604 16.3383 12.1105 16.3383C12.5605 16.3383 12.9993 16.2037 13.3659 15.9532L17.6688 13.0125C17.949 12.8208 18.1776 12.5679 18.3357 12.2747C18.4939 11.9814 18.577 11.6562 18.5783 11.326V5.36427C18.5781 5.03307 18.4955 4.70657 18.3373 4.41217C18.1791 4.11777 17.9499 3.86387 17.6688 3.67167Z" fill="#484E61"/>
<path d="M10.6446 13.956L12.0262 13.0115C12.3062 12.8197 12.5347 12.5668 12.6928 12.2736C12.8509 11.9804 12.9341 11.6553 12.9356 11.3251V5.36341C12.9354 5.28621 12.954 5.21001 12.9899 5.14101C13.0259 5.07191 13.0782 5.01201 13.1427 4.96581L14.6323 3.97821L13.2032 3.00291L12.196 3.66951C11.9152 3.86201 11.6864 4.11601 11.5284 4.41031C11.3705 4.70471 11.288 5.03101 11.2878 5.36211V11.3251C11.2879 11.4042 11.2682 11.4821 11.2303 11.5524C11.1925 11.6226 11.1377 11.6831 11.0704 11.7288L6.7675 14.6584C6.6801 14.7185 6.5753 14.7509 6.4678 14.7509C6.3603 14.7509 6.2555 14.7185 6.1681 14.6584L5.0451 13.8918L3.6185 12.9202L1.8665 11.7226C1.8001 11.6776 1.7458 11.618 1.708 11.5489C1.6702 11.4798 1.65 11.4031 1.6491 11.3251V5.36341C1.6487 5.28421 1.6681 5.20611 1.7057 5.13561C1.7433 5.06511 1.798 5.00441 1.8652 4.95841L6.1681 2.01771C6.2635 1.95431 6.3778 1.92231 6.4937 1.92651C6.6097 1.93081 6.7211 1.97101 6.8113 2.04111L7.6062 2.52391L9.0662 1.53621L7.7284 0.726311C7.3618 0.475911 6.923 0.341309 6.473 0.341309C6.0229 0.341309 5.5841 0.475911 5.2175 0.726311L0.9095 3.67081C0.6283 3.86301 0.399098 4.11681 0.240898 4.41131C0.0826981 4.70571 0.0001 5.03211 0 5.36341V11.3251C0.0002 11.6563 0.0829003 11.9827 0.2411 12.2771C0.3993 12.5715 0.6284 12.8254 0.9095 13.0177L5.2123 15.9584C5.5789 16.2089 6.0178 16.3435 6.4678 16.3435C6.9178 16.3435 7.3567 16.2089 7.7233 15.9584L9.1936 14.9535L10.6433 13.9658L10.6446 13.956Z" fill="#484E61"/>
<path d="M28.5109 2.21851H25.3027V4.04201C25.3028 4.24781 25.2192 4.44541 25.0698 4.59301C24.9204 4.74061 24.7169 4.82631 24.5026 4.83211L23.6484 4.85311V7.28651H25.3027V11.6544C25.3027 14.4148 26.4411 15.3087 31.2007 15.0111V12.505C28.7797 12.7432 28.5932 12.1074 28.5932 11.3334V7.28271H31.2007V4.80001H28.5109V2.21851Z" fill="#484E61"/>
<path d="M41.4202 0.559326C40.2625 0.559326 39.627 0.806226 39.627 2.11863C39.627 3.43093 40.2599 3.67783 41.4202 3.67783C42.5612 3.67783 43.1568 3.39883 43.1568 2.11863C43.1568 0.801326 42.5612 0.559326 41.4202 0.559326Z" fill="#484E61"/>
<path d="M43.0364 4.80005H39.7871V14.9284H43.0364V4.80005Z" fill="#484E61"/>
<path d="M51.3959 4.62099C49.7609 4.62099 48.7269 5.1568 48.2299 5.7729V0.887695H45.0234V14.9284C45.0594 14.9284 45.0941 14.9284 45.1301 14.921H45.2742C45.6333 14.9208 45.9848 14.822 46.2869 14.6363C46.5899 14.4506 46.8309 14.1857 46.9809 13.8729V13.8655C47.0069 13.8124 47.0469 13.7666 47.0969 13.7324C47.1469 13.6981 47.2049 13.6766 47.2649 13.6698C47.3259 13.663 47.3879 13.6712 47.4439 13.6935C47.5009 13.7159 47.5499 13.7517 47.5879 13.7976C48.2029 14.5124 49.0599 14.9395 50.2769 15.0556C50.5299 15.0892 50.7849 15.1065 51.0399 15.1074C52.8809 15.1074 54.0509 14.3605 54.7519 13.2803C54.7909 13.2222 54.8289 13.1568 54.8649 13.1025L54.9369 12.9716C54.9899 12.8753 55.0389 12.7778 55.0849 12.6766L55.1179 12.6025C55.1719 12.479 55.2189 12.3556 55.2639 12.2321C55.2639 12.2185 55.2729 12.205 55.2769 12.1914C55.3219 12.0593 55.3629 11.9247 55.3979 11.7877C55.3979 11.7704 55.4069 11.7556 55.4109 11.7395C55.4389 11.6247 55.4649 11.5087 55.4869 11.3901C55.4959 11.3432 55.5059 11.2963 55.5149 11.2494C55.5239 11.2025 55.5249 11.1753 55.5319 11.1383C55.6009 10.7102 55.6369 10.2777 55.6379 9.84449C55.6379 7.24199 54.6659 4.62099 51.3959 4.62099ZM50.2999 12.5445C48.4989 12.5445 48.2099 11.4531 48.2099 9.84449C48.2099 8.29509 48.4369 7.16299 50.2799 7.16299C52.0379 7.16299 52.3269 8.27409 52.3269 9.84449C52.3269 11.4321 52.0379 12.5445 50.2999 12.5445Z" fill="#484E61"/>
<path d="M61.7619 4.62109C57.9129 4.62109 57.0019 6.10999 57.0019 8.27539H60.1469C60.1469 7.46059 60.5189 6.86559 61.8439 6.86559C63.2509 6.86559 63.7069 7.48279 63.7069 8.65199L60.9329 8.92979C57.9749 9.22849 56.5879 10.0409 56.5879 11.989C56.5879 14.1137 58.4919 15.1075 60.9749 15.1075C62.5809 15.1075 63.6449 14.6594 64.3729 13.8125C64.4109 13.7663 64.4609 13.7303 64.5179 13.7077C64.5739 13.6852 64.6359 13.6769 64.6969 13.6838C64.7579 13.6906 64.8159 13.7122 64.8659 13.7466C64.9159 13.781 64.9559 13.8271 64.9819 13.8804C65.1319 14.1932 65.3729 14.4581 65.6759 14.6438C65.9779 14.8295 66.3299 14.9283 66.6889 14.9285H66.9339V9.189C66.9319 6.5668 66.2639 4.62109 61.7619 4.62109ZM61.6329 12.9223C60.4539 12.9223 59.9609 12.4853 59.9609 11.8693C59.9609 11.3927 60.3549 11.0359 61.6329 10.9162L63.7029 10.6779C63.6839 11.9298 63.0829 12.9223 61.6329 12.9223Z" fill="#484E61"/>
<path d="M72.0004 0.887695H68.7734V14.9284H72.0004V0.887695Z" fill="#484E61"/>
<path d="M38.6835 4.60522C38.5793 4.60522 38.4828 4.61263 38.3825 4.61633C37.5606 4.56893 36.7457 4.78622 36.067 5.23362C35.7737 5.41492 35.5112 5.63852 35.2888 5.89652C35.2504 5.94232 35.2005 5.97802 35.1438 6.00032C35.0871 6.02252 35.0254 6.03052 34.9646 6.02362C34.9038 6.01672 34.8458 5.99512 34.7961 5.96072C34.7463 5.92642 34.7065 5.88052 34.6803 5.82742C34.5285 5.51412 34.2863 5.24923 33.9824 5.06413C33.6784 4.87903 33.3256 4.78142 32.9656 4.78292H32.7199V4.80642H32.7109V14.9299H35.9384V9.74472C35.9384 8.39412 36.3114 7.10392 38.7324 7.34222V4.64103H38.6886C38.6874 4.61873 38.6861 4.60522 38.6835 4.60522Z" fill="#484E61"/>
</svg>
