<svg width="104" height="13" viewBox="0 0 104 13" fill="none" xmlns="http://www.w3.org/2000/svg">
<mask id="mask0_12_1074" style="mask-type:luminance" maskUnits="userSpaceOnUse" x="0" y="0" width="104" height="13">
<path d="M104 0.338379H0V12.3384H104V0.338379Z" fill="white"/>
</mask>
<g mask="url(#mask0_12_1074)">
<path d="M4.7617 12.153L0 0.523438H2.4392L5.9247 9.19934L9.4308 0.523438H11.87L7.0843 12.153H4.7617Z" fill="#484E61"/>
<path d="M13.969 5.31604H21.1219C20.9147 4.53054 20.4537 3.83214 19.808 3.32564C19.1776 2.81594 18.3844 2.54044 17.5678 2.54764C16.7298 2.52694 15.9116 2.79904 15.259 3.31554C14.6196 3.82754 14.1669 4.52964 13.969 5.31604ZM13.252 10.597C12.6802 10.046 12.2286 9.38664 11.9249 8.65874C11.6211 7.93094 11.4715 7.14994 11.4852 6.36354C11.4721 5.57574 11.6194 4.79324 11.9187 4.06214C12.218 3.33114 12.6632 2.66614 13.228 2.10644C13.7754 1.53434 14.439 1.08134 15.1759 0.776837C15.9128 0.472237 16.7066 0.322839 17.506 0.338239C19.0672 0.320639 20.576 0.890637 21.7223 1.93124C22.3172 2.46244 22.7924 3.10984 23.1173 3.83194C23.4423 4.55414 23.6098 5.33494 23.6091 6.12434C23.6111 6.47354 23.5882 6.82244 23.5405 7.16844H13.969C14.0046 7.57854 14.1223 7.97764 14.3154 8.34284C14.5085 8.70814 14.7732 9.03244 15.0943 9.29704C15.7638 9.85324 16.619 10.1471 17.4957 10.1221C18.0265 10.1409 18.5552 10.0468 19.0455 9.84624C19.5358 9.64564 19.9761 9.34344 20.3363 8.96024L23.1083 8.98374C22.5929 9.98464 21.8058 10.8262 20.8338 11.4154C19.8565 12.0238 18.7215 12.343 17.5644 12.3348C16.7627 12.35 15.9664 12.2037 15.2247 11.9047C14.483 11.6058 13.8116 11.1607 13.252 10.597Z" fill="#484E61"/>
<path d="M25.1836 12.153V6.09057C25.1836 4.22927 25.641 2.82938 26.5559 1.89078C27.0233 1.41998 27.5867 1.05118 28.2092 0.808576C28.8316 0.565977 29.4992 0.455073 30.1684 0.482973H30.4051V2.69578H30.1684C28.3981 2.69578 27.5142 3.82737 27.5165 6.09057V12.153H25.1836Z" fill="#484E61"/>
<path d="M37.3432 2.54766C36.8333 2.53186 36.3256 2.62106 35.8529 2.80956C35.3802 2.99816 34.953 3.28176 34.5987 3.64226C33.894 4.36866 33.5009 5.33336 33.5009 6.33656C33.5009 7.33976 33.894 8.30446 34.5987 9.03096C34.948 9.39006 35.3697 9.67376 35.837 9.86396C36.3042 10.0542 36.8067 10.1467 37.3124 10.1357C37.8129 10.148 38.3105 10.0573 38.7732 9.86926C39.2358 9.68136 39.6532 9.40036 39.9985 9.04446C40.6911 8.31186 41.0759 7.34946 41.0759 6.35006C41.0759 5.35066 40.6911 4.38816 39.9985 3.65566C39.6539 3.29866 39.2367 3.01666 38.774 2.82806C38.3112 2.63956 37.8132 2.54856 37.3124 2.56116L37.3432 2.54766ZM32.9932 2.08286C33.9937 1.09776 35.3113 0.483863 36.7213 0.345663C38.1314 0.207463 39.5466 0.553663 40.7257 1.32516C41.9048 2.09676 42.775 3.24586 43.1877 4.57666C43.6004 5.90746 43.5303 7.33766 42.9892 8.62336C42.4481 9.90906 41.4695 10.9708 40.2203 11.6275C38.9711 12.2842 37.5286 12.4953 36.1386 12.2248C34.7486 11.9542 33.4972 11.2188 32.5977 10.1439C31.6982 9.06886 31.2063 7.72096 31.2058 6.32986C31.1931 5.53966 31.3451 4.75536 31.6525 4.02506C31.9598 3.29466 32.4161 2.63376 32.9932 2.08286Z" fill="#484E61"/>
<path d="M55.4529 12.153H52.801L49.7443 7.99024L46.6876 12.153H44.0117L48.4167 6.10754L44.3651 0.523438H46.9964L49.7203 4.24504L52.4923 0.523438H55.1236L51.072 6.10754L55.4529 12.153Z" fill="#484E61"/>
<path d="M58.1469 12.1159V8.22591H56.0234V6.87881H58.1469V6.46451L58.195 5.04661C58.323 3.63431 58.7736 2.52511 59.5466 1.71911C60.3644 0.894909 61.4646 0.398007 62.6339 0.324707V1.74601C61.8591 1.86291 61.1464 2.23171 60.6101 2.79341C60.0522 3.42111 59.7301 4.21751 59.6976 5.05001L59.6496 6.46791V6.88211H63.3859V8.22931H59.6633V12.1193L58.1469 12.1159Z" fill="#484E61"/>
<path d="M67.3051 0.526855H65.7891V12.1564H67.3051V0.526855Z" fill="#484E61"/>
<path d="M79.2198 3.09326C78.8008 2.66196 78.2938 2.32126 77.7328 2.09286C77.1718 1.86436 76.5688 1.75316 75.9608 1.76626C75.3508 1.75546 74.7448 1.86766 74.1808 2.09586C73.6168 2.32416 73.1068 2.66356 72.6818 3.09326C71.8198 3.96376 71.3388 5.12966 71.3388 6.34326C71.3388 7.55696 71.8198 8.72286 72.6818 9.59336C73.1028 10.0265 73.6108 10.3696 74.1728 10.6014C74.7358 10.8332 75.3408 10.9486 75.9508 10.9406C76.5558 10.9519 77.1568 10.8402 77.7168 10.6124C78.2758 10.3846 78.7808 10.0457 79.1998 9.61696C80.0468 8.73656 80.5188 7.57136 80.5188 6.36016C80.5188 5.14896 80.0468 3.98366 79.1998 3.10336L79.2198 3.09326ZM71.6148 2.08286C72.6148 1.09776 73.9328 0.483863 75.3428 0.345663C76.7528 0.207463 78.1678 0.553663 79.3468 1.32516C80.5258 2.09676 81.3968 3.24586 81.8088 4.57666C82.2218 5.90746 82.1518 7.33766 81.6108 8.62336C81.0698 9.90906 80.0908 10.9708 78.8418 11.6275C77.5928 12.2842 76.1498 12.4953 74.7598 12.2248C73.3698 11.9542 72.1188 11.2188 71.2188 10.1439C70.3198 9.06886 69.8278 7.72096 69.8268 6.32986C69.8148 5.53966 69.9668 4.75536 70.2738 4.02506C70.5808 3.29466 71.0378 2.63376 71.6148 2.08286Z" fill="#484E61"/>
<path d="M93.9279 3.09326C93.5079 2.66196 93.0009 2.32126 92.4399 2.09286C91.8789 1.86436 91.2759 1.75316 90.6679 1.76626C90.0579 1.75546 89.4529 1.86766 88.8879 2.09586C88.3239 2.32416 87.8139 2.66356 87.3889 3.09326C86.5269 3.96376 86.0459 5.12966 86.0459 6.34326C86.0459 7.55696 86.5269 8.72286 87.3889 9.59336C87.8099 10.0268 88.3179 10.3701 88.8799 10.6019C89.4429 10.8338 90.0479 10.949 90.6579 10.9406C91.2629 10.9523 91.8639 10.8407 92.4219 10.6128C92.9809 10.385 93.4849 10.0459 93.9039 9.61696C94.7519 8.73696 95.2239 7.57156 95.2239 6.36016C95.2239 5.14876 94.7519 3.98336 93.9039 3.10336L93.9279 3.09326ZM86.3249 2.08286C87.3259 1.09776 88.6429 0.483863 90.0529 0.345663C91.4629 0.207463 92.8789 0.553663 94.0579 1.32516C95.2369 2.09676 96.1069 3.24586 96.5199 4.57666C96.9319 5.90746 96.8619 7.33766 96.3209 8.62336C95.7799 9.90906 94.8019 10.9708 93.5519 11.6275C92.3029 12.2842 90.8609 12.4953 89.4709 12.2248C88.0809 11.9542 86.8289 11.2188 85.9299 10.1439C85.0299 9.06886 84.5379 7.72096 84.5379 6.32986C84.5249 5.53966 84.6769 4.75526 84.9839 4.02496C85.2919 3.29456 85.7479 2.63366 86.3249 2.08286Z" fill="#484E61"/>
<path d="M98.5488 12.1532V6.12447C98.5488 4.24967 98.9868 2.83848 99.8628 1.89098C100.313 1.41658 100.862 1.04398 101.474 0.799176C102.085 0.554276 102.744 0.442977 103.403 0.473077C103.518 0.471377 103.633 0.478076 103.746 0.493276V1.91457C103.633 1.89627 103.518 1.88838 103.403 1.89098C102.94 1.87228 102.479 1.95917 102.055 2.14497C101.632 2.33087 101.259 2.61048 100.964 2.96198C100.365 3.67378 100.065 4.72797 100.065 6.12447V12.1532H98.5488Z" fill="#484E61"/>
<path d="M102.449 10.8598H102.707C102.794 10.8687 102.882 10.8498 102.957 10.8059C102.979 10.7892 102.996 10.7676 103.007 10.743C103.019 10.7184 103.024 10.6914 103.022 10.6644C103.023 10.6285 103.012 10.5933 102.991 10.5634C102.969 10.5331 102.938 10.5098 102.902 10.496C102.833 10.4791 102.761 10.4723 102.689 10.4758H102.449V10.8598ZM102.237 11.5839V10.3007H102.689C102.805 10.2946 102.921 10.3059 103.033 10.3344C103.099 10.3582 103.157 10.4017 103.197 10.459C103.237 10.5144 103.258 10.5801 103.259 10.6476C103.26 10.6933 103.251 10.7386 103.233 10.7809C103.216 10.8232 103.189 10.8615 103.156 10.8935C103.082 10.964 102.984 11.0048 102.882 11.008C102.924 11.024 102.962 11.048 102.995 11.0787C103.068 11.1561 103.132 11.2407 103.187 11.3313L103.348 11.5839H103.091L102.974 11.3818C102.92 11.2689 102.844 11.1672 102.751 11.0821C102.702 11.0488 102.643 11.0333 102.583 11.0383H102.449V11.5839H102.237ZM102.772 9.9269C102.597 9.9285 102.426 9.9737 102.274 10.0582C102.114 10.1414 101.981 10.269 101.894 10.4253C101.804 10.5766 101.756 10.7486 101.756 10.9238C101.757 11.0973 101.803 11.2679 101.89 11.4189C101.977 11.5742 102.108 11.7016 102.267 11.786C102.42 11.8742 102.594 11.9207 102.772 11.9207C102.949 11.9207 103.123 11.8742 103.276 11.786C103.435 11.7016 103.566 11.5742 103.653 11.4189C103.738 11.267 103.783 11.0969 103.784 10.9238C103.784 10.7491 103.738 10.5773 103.65 10.4253C103.561 10.2697 103.429 10.1424 103.269 10.0582C103.124 9.977 102.96 9.9319 102.792 9.9269H102.772ZM102.772 9.7315C102.981 9.7323 103.186 9.7844 103.369 9.8831C103.56 9.9847 103.719 10.1377 103.825 10.3243C103.929 10.5076 103.985 10.7138 103.986 10.9238C103.987 11.1319 103.931 11.3364 103.825 11.5165C103.722 11.7044 103.566 11.8589 103.376 11.9611C103.191 12.0626 102.983 12.1159 102.772 12.1159C102.56 12.1159 102.352 12.0626 102.168 11.9611C101.982 11.8551 101.83 11.6999 101.729 11.5132C101.622 11.3319 101.566 11.1263 101.566 10.917C101.566 10.7078 101.622 10.5022 101.729 10.3209C101.835 10.1344 101.994 9.9814 102.185 9.8797C102.371 9.7805 102.58 9.7295 102.792 9.7315H102.772Z" fill="#484E61"/>
</g>
</svg>
