<svg width="112" height="13" viewBox="0 0 112 13" fill="none" xmlns="http://www.w3.org/2000/svg">
<mask id="mask0_12_1067" style="mask-type:luminance" maskUnits="userSpaceOnUse" x="0" y="0" width="112" height="13">
<path d="M112 0.338379H0V12.3384H112V0.338379Z" fill="white"/>
</mask>
<g mask="url(#mask0_12_1067)">
<path d="M0.127268 0.671839C0.391468 0.211839 1.00427 0.33444 1.41147 0.52154C4.36527 1.74724 7.30817 3.00464 10.247 4.26324C10.996 4.47154 10.6555 5.34794 10.6555 5.89494C9.03487 5.91204 7.41297 5.89494 5.79107 5.90804C5.34307 5.88964 4.81057 5.98454 4.47287 5.62204C3.13957 4.39634 1.85267 3.11794 0.549468 1.86724C0.242968 1.56144 -0.206434 1.11074 0.132666 0.671839H0.127268ZM19.4338 1.17004C20.1474 0.891938 20.8297 0.511038 21.5868 0.351538C22.0607 0.254038 22.2677 0.731138 22.4992 1.02504C21.4969 2.46034 20.0561 3.52914 18.836 4.78654C18.3062 5.24114 17.8405 5.99504 17.0315 5.90674C15.2816 5.90674 13.5317 5.89624 11.779 5.90674C11.6673 5.39934 11.3895 4.59804 12.0378 4.32524C14.489 3.25504 16.9662 2.21644 19.4338 1.17394V1.17004ZM33.9304 1.38484C34.0665 1.06324 34.4438 1.18454 34.7175 1.15154C37.1225 1.16604 39.5261 1.15154 41.9351 1.16084C43.4331 1.18454 44.8058 2.34694 44.9979 3.78744C45.2906 5.44674 43.8812 7.16804 42.138 7.24314C40.0844 7.28534 38.0281 7.21544 35.9758 7.26954C35.5754 8.32394 36.0384 9.56404 35.7416 10.6685C35.2064 11.0639 34.5949 11.4659 33.8949 11.4949C33.8949 9.66684 33.914 7.83754 33.9045 6.00954C33.88 5.75784 33.9412 5.33344 34.313 5.40194C36.7956 5.37034 39.2809 5.41644 41.7635 5.38744C42.3736 5.42044 43.0287 4.97494 43.0491 4.35424C43.1853 3.63064 42.5044 2.99144 41.7744 3.01644C39.187 2.97034 36.5995 3.05994 34.0257 2.97824C33.8269 2.47484 33.8895 1.91204 33.9358 1.38484H33.9304ZM56.0694 11.4856C56.0572 8.04314 56.0163 4.59804 56.0912 1.15684C59.8049 1.17004 63.5227 1.12914 67.2367 1.17664C67.0357 1.81844 66.7827 2.55384 66.2227 2.96644C63.4845 3.06394 60.7309 2.98354 57.9869 3.00334C57.9719 3.79404 57.9733 4.60064 57.9773 5.40064C60.6574 5.39274 63.3384 5.39274 66.0207 5.40064C66.0587 6.01354 66.0597 6.63034 66.0397 7.24584C63.3511 7.27214 60.6656 7.24584 57.9773 7.25894C57.9773 8.04974 57.9773 8.84054 57.9773 9.63134C60.5648 9.62204 63.1427 9.63134 65.7247 9.63134C66.6777 9.57594 66.8387 10.7304 67.3007 11.313C67.0547 11.4561 66.7697 11.5262 66.4837 11.5146C63.012 11.5001 59.538 11.5331 56.0681 11.4975L56.0694 11.4856ZM78.2537 1.23324C78.5257 0.95914 78.7877 1.35714 79.0307 1.46264C81.9247 3.62144 84.8347 5.75654 87.7217 7.92064C87.7647 5.99774 87.6677 4.07084 87.7647 2.15324C88.1977 1.61024 88.9067 1.34794 89.5527 1.10804C89.6977 1.50344 89.6687 1.92784 89.6727 2.34034C89.6447 5.29254 89.6917 8.24874 89.6507 11.201C89.7557 11.6662 89.1757 11.5252 88.9697 11.3103C86.0217 9.12394 83.0847 6.92024 80.1287 4.74434C80.0917 6.68044 80.1937 8.62304 80.0847 10.5552C79.6577 11.0823 78.9097 11.4105 78.2157 11.5225C78.1857 8.45964 78.2157 5.39674 78.1967 2.33244C78.1837 1.96424 78.2027 1.59574 78.2537 1.23064V1.23324ZM100.792 5.11204C101.328 2.83594 103.629 1.10014 106.042 1.16474C107.948 1.20164 109.848 1.09354 111.745 1.21744C111.726 1.88564 111.289 2.46554 110.872 2.96904C109.143 3.11924 107.393 2.91764 105.662 3.05864C104.243 3.22734 102.978 4.28304 102.666 5.64054C102.159 7.48564 103.727 9.51264 105.682 9.62074C107.153 9.64714 108.625 9.62074 110.097 9.62074C110.097 8.82994 110.097 8.04714 110.097 7.26034C108.998 7.24444 107.896 7.28664 106.797 7.24974C106.325 7.29984 106.167 6.76874 105.948 6.46824C105.812 6.14264 105.452 5.80924 105.634 5.43754C107.421 5.34394 109.216 5.43754 111.007 5.39404C111.331 5.43624 111.753 5.29254 111.994 5.57994C112.045 7.53834 111.994 9.50084 112.012 11.4606C110.662 11.5515 109.309 11.4909 107.959 11.5054C106.554 11.4856 105.064 11.6675 103.766 11.0178C101.497 10.0609 100.137 7.43294 100.799 5.10944L100.792 5.11204ZM4.43197 7.06394C4.78057 6.69224 5.32937 6.78974 5.79377 6.77134C7.42797 6.79634 9.05396 6.75024 10.6827 6.80164C10.6977 7.30384 10.9796 8.09454 10.3518 8.34894C7.80247 9.45734 5.23957 10.5341 2.67797 11.6187C2.00927 11.8823 1.35967 12.2461 0.635169 12.3383C0.270269 12.2316 -0.0552329 11.8955 0.0182672 11.5014C0.245767 11.0033 0.688367 10.6448 1.07377 10.2612C2.20537 9.20694 3.27847 8.09064 4.43877 7.06394H4.43197ZM11.7354 6.80034C13.4336 6.76874 15.14 6.80034 16.8327 6.77924C17.1868 6.80564 17.613 6.73314 17.8868 7.00594C19.1328 8.13274 20.3217 9.31634 21.5378 10.4721C21.851 10.799 22.2187 11.1021 22.3889 11.5265C22.487 12.0985 21.7625 12.5439 21.2518 12.2382C18.1782 11.0125 15.1481 9.67874 12.1086 8.37794C11.41 8.14594 11.6646 7.33014 11.7354 6.80294" fill="#484E61"/>
</g>
</svg>
